<svg width="98" height="97" viewBox="0 0 98 97" fill="none" xmlns="http://www.w3.org/2000/svg">
<g filter="url(#filter0_d_62_1176)">
<path d="M86.9964 66.4288L81.8552 56.0611C85.8521 47.4284 86.4675 37.6167 83.5804 28.5544C80.6932 19.4922 74.5124 11.8348 66.2526 7.08726C57.9929 2.33975 48.2516 0.845505 38.9435 2.89821C29.6353 4.95091 21.4335 10.4021 15.95 18.1804C10.4665 25.9586 8.09802 35.5014 9.30997 44.9331C10.5219 54.3648 15.2267 63.0032 22.4996 69.1506C29.7725 75.298 39.0875 78.5096 48.6137 78.1544C58.14 77.7991 67.1886 73.9026 73.9809 67.2306V67.2503L86.9964 66.4288Z" fill="#FAFAFA"/>
<path d="M86.997 66.4279L73.9848 67.2854H73.9159L73.952 67.2232V67.2036L74.011 67.2494C73.0588 68.1836 72.0602 69.0694 71.0188 69.9035C70.4742 70.3617 69.8705 70.7806 69.2701 71.2322C68.6697 71.6838 68.0135 72.1027 67.3343 72.5118C64.3672 74.3646 61.1561 75.7964 57.7933 76.7663C53.8613 77.8927 49.7748 78.3887 45.6867 78.2357C41.07 78.0577 36.5247 77.0407 32.2742 75.2347C27.5949 73.249 23.3572 70.3568 19.8066 66.7258C15.8607 62.6766 12.8669 57.8028 11.042 52.4574C9.21705 47.1119 8.6067 41.4285 9.25512 35.8188C9.31745 35.0792 9.46181 34.3461 9.58321 33.6065C9.7046 32.8669 9.87849 32.1436 10.0327 31.4073C10.7484 28.4601 11.8019 25.605 13.1726 22.8984C14.6053 20.1323 16.3584 17.5434 18.3958 15.1847L19.1865 14.3175L19.5802 13.8822L19.9969 13.4698L20.8237 12.6451L21.6833 11.8368C23.9718 9.77558 26.5063 8.00371 29.2295 6.56127C29.8857 6.18819 30.5812 5.88056 31.2637 5.55002C31.9461 5.21948 32.6515 4.95767 33.3405 4.66313C34.0492 4.41768 34.7447 4.13951 35.4567 3.92024C36.1687 3.70097 36.8773 3.46534 37.6024 3.30171C40.4359 2.57294 43.3424 2.16348 46.2674 2.08101C54.02 1.8876 61.6481 4.05241 68.1375 8.28767C74.6269 12.5229 79.6703 18.628 82.5972 25.7914C83.3933 27.7632 84.0297 29.7955 84.5002 31.8687C84.6019 32.3727 84.7003 32.8701 84.7988 33.3643C84.8972 33.8585 84.9497 34.3461 85.0284 34.8436L85.1367 35.5766C85.1629 35.8188 85.1859 36.061 85.2122 36.3032C85.2679 36.7842 85.304 37.262 85.3303 37.7399C85.5559 41.222 85.2987 44.7185 84.5658 48.1305C84.2455 49.5813 83.8424 51.0127 83.3584 52.4177C82.8991 53.7268 82.3971 54.954 81.8918 56.0634V56.034C85.199 62.7593 86.8887 66.1792 87.0003 66.4148C86.8854 66.189 85.1793 62.7691 81.8262 56.0634C82.3282 54.954 82.8105 53.7431 83.2797 52.421C84.8787 47.7069 85.5341 42.7255 85.2089 37.7595C85.1793 37.285 85.1432 36.8071 85.0875 36.3261L85.0087 35.6028L84.9005 34.873C84.8217 34.3887 84.7725 33.8912 84.6675 33.4003C84.5625 32.9094 84.4707 32.4185 84.3689 31.908C83.8988 29.8421 83.2624 27.8174 82.466 25.8536C79.5448 18.7196 74.5162 12.6414 68.0486 8.42665C61.581 4.21191 53.9806 2.06028 46.2576 2.25773C43.3447 2.34107 40.4504 2.74942 37.6287 3.47516C36.9102 3.63879 36.208 3.88097 35.4961 4.09042C34.7841 4.29987 34.0951 4.58786 33.3897 4.83331C32.7007 5.12785 31.9986 5.39294 31.3194 5.71693C30.6403 6.04092 29.9546 6.34855 29.2951 6.7249C26.5898 8.1562 24.0718 9.9149 21.7981 11.9612L20.9418 12.7433L20.1183 13.5648L19.7049 13.9771L19.3112 14.4091L18.5238 15.2731C16.4944 17.624 14.75 20.2054 13.3268 22.9638C11.9604 25.6622 10.9102 28.5085 10.1967 31.4465C10.0458 32.1763 9.86865 32.9029 9.75054 33.6359C9.63242 34.369 9.49791 35.0988 9.42244 35.8384C8.76196 41.5919 9.4251 47.4197 11.3615 52.8792C13.1829 58.0246 16.1023 62.7142 19.9182 66.6243C23.4509 70.2511 27.6695 73.1431 32.33 75.1332C36.5645 76.936 41.0928 77.9541 45.6932 78.1375C49.7674 78.2938 53.8406 77.8033 57.7605 76.6844C61.1124 75.7255 64.3146 74.3069 67.2753 72.4693C67.9577 72.0635 68.5876 71.6184 69.211 71.1962C69.8344 70.774 70.4118 70.3322 70.9565 69.8871C71.9986 69.0573 72.9984 68.1759 73.952 67.2461L74.1488 67.0596L74.011 67.2919V67.3116L73.9782 67.2526L86.997 66.4279Z" fill="#263238"/>
<path d="M27.611 72.8862L66.9036 72.824C66.9036 72.824 57.5102 79.042 46.2336 78.2991C36.4269 77.6642 27.611 72.8862 27.611 72.8862Z" fill="#3F424F"/>
<path d="M44.82 46.5937L47.0609 54.7753L55.2469 43.7498L53.3177 72.6604H41.631L38.2253 72.824C38.2253 72.824 38.7306 68.2685 38.9373 65.6929C39.0635 63.637 39.4111 61.6006 39.9741 59.6189C41.7195 53.9572 44.82 46.5937 44.82 46.5937Z" fill="#FAFAFA"/>
<path d="M47.4569 59.39C47.4865 59.426 46.1642 60.4864 44.5041 61.7594C42.8439 63.0325 41.4823 64.0307 41.4528 63.9947C41.4233 63.9587 42.7422 62.895 44.4057 61.6253C46.0691 60.3555 47.4274 59.3508 47.4569 59.39Z" fill="#263238"/>
<path d="M67.803 42.6073L61.438 39.5539L58.9412 36.5955L55.4109 40.2543L46.0471 72.5783H62.104L64.1612 67.0312L67.803 45.6149V42.6073Z" fill="#92E3A9"/>
<path d="M39.16 73.037L38.7302 66.1645L58.1238 62.8918C58.1238 62.8918 61.4375 46.9278 63.4783 44.3129C65.3648 41.8977 67.819 42.7355 67.819 42.7355C67.819 42.7355 70.0336 44.2475 69.5054 50.0368C69.2265 53.0706 68.1143 63.5823 67.714 67.3819C67.6156 68.2916 67.3128 69.1675 66.8281 69.9444C66.2821 70.819 65.5218 71.5405 64.6189 72.041C63.716 72.5414 62.7002 72.8042 61.6672 72.8047L39.16 73.037Z" fill="#92E3A9"/>
<path d="M61.2943 66.8929C61.2648 66.8929 61.2385 66.5885 61.0974 66.1205C60.9165 65.5094 60.6105 64.9424 60.1989 64.4552C59.7872 63.9679 59.2788 63.5711 58.7056 63.2897C58.266 63.0704 57.9641 62.9951 57.974 62.9624C58.2458 62.9836 58.5109 63.057 58.7549 63.1784C59.3636 63.4376 59.903 63.8355 60.3298 64.3402C60.7565 64.8449 61.0588 65.4423 61.2123 66.0845C61.291 66.3463 61.3188 66.6207 61.2943 66.8929Z" fill="#263238"/>
<g opacity="0.2">
<path d="M60.9399 40.0186C60.7567 42.039 60.3686 44.0357 59.7817 45.9781L58.325 45.5526C58.6017 45.9968 58.783 46.4935 58.8575 47.0111C58.9321 47.5288 58.8982 48.0562 58.7581 48.5602C58.4736 49.5654 58.0495 50.5259 57.4982 51.4139C55.0922 55.736 52.6796 60.0603 50.2604 64.3867L57.5572 47.8598L57.367 44.8032L58.7712 44.5054L60.9399 40.0186Z" fill="black"/>
</g>
<g opacity="0.2">
<path d="M58.0615 62.7178C58.9521 62.6667 59.8331 62.9237 60.5558 63.4454C61.2785 63.9671 61.7985 64.7216 62.0282 65.5814C62.0957 65.7832 62.0957 66.0014 62.0282 66.2032C61.9917 66.3023 61.919 66.3839 61.8247 66.4319C61.7304 66.4798 61.6215 66.4905 61.5197 66.4617C61.3821 66.3754 61.2816 66.2413 61.2375 66.0854C60.9144 65.3645 60.4494 64.7158 59.87 64.1777C59.2906 63.6397 58.6086 63.2234 57.8647 62.9534" fill="black"/>
</g>
<path d="M50.3127 64.2303C50.3397 64.1398 50.3726 64.0513 50.4112 63.9652L50.7393 63.2158L51.9171 60.4831L55.8739 51.4866C56.4383 50.2102 56.9829 48.9797 57.4947 47.8277V47.8637C57.4324 46.7772 57.37 45.7561 57.3143 44.8103V44.7449H57.3733L58.7808 44.4536L58.7349 44.4896L60.4837 40.9584L60.9725 39.993L61.107 39.7443C61.1211 39.7146 61.1376 39.6862 61.1563 39.6592C61.1509 39.6914 61.1398 39.7225 61.1234 39.7508L61.0086 40.0094C60.8971 40.2483 60.7461 40.5788 60.5526 40.9912L58.8563 44.5485V44.578H58.8235L57.4193 44.8823L57.4783 44.8071C57.5374 45.7529 57.603 46.7707 57.6752 47.8605V47.8801V47.8997C57.1633 49.055 56.622 50.2855 56.0577 51.5618L52.0582 60.5387C51.5431 61.6711 51.1264 62.5939 50.8278 63.2518L50.4998 63.9848C50.4437 64.0712 50.3812 64.1533 50.3127 64.2303Z" fill="#263238"/>
<path d="M39.1437 72.8204C39.1356 72.7827 39.1301 72.7444 39.1273 72.7059C39.1273 72.6208 39.1273 72.5095 39.1011 72.3786C39.0781 72.071 39.0453 71.639 39.006 71.0695C38.9305 69.9405 38.8222 68.3205 38.6779 66.3275V66.2718H38.7304L52.7629 63.6995L57.937 62.7635L57.8714 62.8257C59.0098 58.5156 59.9941 54.775 60.7028 52.0979C61.0571 50.7889 61.359 49.7187 61.5394 48.9791C61.6412 48.6224 61.7166 48.3442 61.7724 48.1446L61.8347 47.9286L61.861 47.8599C61.8653 47.8848 61.8653 47.9102 61.861 47.9351L61.8118 48.1511C61.7626 48.354 61.6937 48.6355 61.6051 48.9922L60.8144 52.1241C60.1221 54.8044 59.1542 58.5516 58.042 62.865V62.9173H57.9895L52.8023 63.873L38.7664 66.3929L38.8189 66.3275C38.9272 68.3238 39.0158 69.9437 39.0781 71.0761C39.1044 71.6292 39.1241 72.0579 39.1372 72.3688C39.1372 72.5095 39.1372 72.6208 39.1372 72.696C39.1436 72.7372 39.1458 72.7788 39.1437 72.8204Z" fill="#263238"/>
<path d="M66.8251 42.073C66.8251 42.1025 66.497 42.1516 66.0049 42.3348C65.36 42.576 64.7691 42.9418 64.2664 43.4113C63.7636 43.8808 63.3587 44.4448 63.075 45.0708C62.8585 45.5519 62.7896 45.8791 62.7469 45.8693C62.7042 45.8595 62.7469 45.7875 62.7699 45.6369C62.8105 45.4277 62.8709 45.2228 62.9503 45.025C63.2129 44.3659 63.6181 43.7727 64.137 43.2879C64.656 42.8031 65.2759 42.4385 65.9524 42.2203C66.1556 42.1551 66.3642 42.108 66.5758 42.0796C66.7398 42.0632 66.8218 42.0599 66.8251 42.073Z" fill="#263238"/>
<path d="M30.1578 34.7983C30.7319 33.7412 30.4859 29.4737 31.3619 29.6242C32.4938 29.8173 31.4472 34.3041 31.3619 34.7132C31.2766 35.1223 31.8835 35.2205 31.9262 34.8507C31.9918 34.3172 32.648 29.0973 33.7602 29.3919C34.377 29.5522 34.0883 30.6748 34.0883 30.6748C34.0883 30.6748 33.1303 35.7343 33.6618 35.8554C34.1933 35.9765 34.5969 33.0605 34.8331 32.0002C35.0693 30.9398 35.7255 30.5439 35.9781 31.0806C36.3456 31.866 35.6501 34.4154 35.4269 35.4365C35.2038 36.4575 34.6855 39.4193 36.1258 38.2608C37.5661 37.1023 39.0786 36.7423 39.5741 36.9288C40.0695 37.1153 39.9448 37.8452 39.3936 37.9891C38.8099 38.207 38.2582 38.502 37.7531 38.8662C37.3522 39.1641 36.9868 39.5067 36.6639 39.8873C36.2339 40.3589 35.8857 40.8986 35.6336 41.4843C35.4291 41.947 35.1286 42.3612 34.752 42.6996C34.3753 43.0381 33.9311 43.2931 33.4485 43.4479L32.6086 47.434L27.1688 46.2722L28.3795 42.0538C28.8224 39.2818 28.5796 35.5576 28.5829 33.8721C28.5829 31.1689 28.9405 31.1493 29.2391 31.2213C29.9642 31.362 29.5967 35.8292 30.1578 34.7983Z" fill="#FFD1BD"/>
<path d="M30.0034 38.4252C30.2517 38.519 30.4938 38.6283 30.7284 38.7524C31.2811 39.0924 31.7108 39.599 31.9555 40.1989C32.0263 40.3838 32.0812 40.5743 32.1196 40.7684L32.136 40.86L32.2147 40.8175C32.6505 40.562 33.1263 40.3816 33.6222 40.284C33.993 40.212 34.2226 40.2055 34.2226 40.1858C34.0196 40.1512 33.8121 40.1512 33.6091 40.1858C33.0952 40.2596 32.5998 40.4295 32.1491 40.6866L32.2442 40.7357C32.21 40.5296 32.1539 40.3277 32.0769 40.1335C31.9342 39.791 31.7321 39.4764 31.4798 39.204C31.2728 38.9861 31.0338 38.8007 30.7711 38.6542C30.5971 38.5589 30.4119 38.4853 30.2199 38.435C30.1488 38.4198 30.0756 38.4164 30.0034 38.4252Z" fill="#CC8F75"/>
<path d="M29.2816 42.2211C30.0665 42.7544 30.9928 43.0427 31.9425 43.0491C31.9425 43.0098 31.3224 42.9378 30.5874 42.7054C29.8525 42.4731 29.298 42.1851 29.2816 42.2211Z" fill="#CC8F75"/>
<path d="M48.9737 38.2945L44.82 46.5939L47.0609 54.7723L53.0289 48.4823L58.9116 37.5811L48.9737 38.2945Z" fill="#FFD1BD"/>
<path d="M45.0622 39.073C45.0622 39.073 39.1565 41.1675 39.1565 41.5569C38.1132 42.3718 34.6387 50.7531 33.533 52.337L30.3702 57.0006L33.0212 46.6786L27.1909 44.9703C27.1909 44.9703 22.2105 56.9547 21.6068 59.6187C21.2418 61.2004 21.2756 62.8477 21.7052 64.4131L21.738 64.3869C22.1118 65.5825 22.8825 66.6154 23.9231 67.316C26.3937 68.8967 28.7035 69.1945 31.0657 67.4534C32.4044 66.4716 33.9333 65.2771 35.331 64.1644L35.6984 72.8304H38.917C38.917 72.3428 38.8186 66.4062 38.8186 66.4062C39.2412 65.0014 39.57 63.5703 39.8029 62.1223C40.0949 60.0801 44.8916 46.6688 44.8916 46.6688L48.6089 39.5148L48.6975 36.8672L45.0622 39.073Z" fill="#92E3A9"/>
<path d="M35.6307 72.7542C35.6149 72.6656 35.6062 72.5758 35.6044 72.4858C35.5913 72.2938 35.5749 72.0353 35.5552 71.7102C35.5191 71.0164 35.4699 70.0412 35.4076 68.8368C35.296 66.3856 35.1451 63.0115 34.9745 59.2283V59.2087C35.0434 58.852 35.1188 58.4691 35.1943 58.0829C35.9719 54.1099 36.6806 50.51 37.1957 47.8886L37.8223 44.8057C37.8945 44.4523 37.9569 44.1741 37.9995 43.9679L38.0487 43.7519C38.0541 43.7273 38.0618 43.7032 38.0717 43.6799C38.0767 43.7048 38.0767 43.7304 38.0717 43.7552L38.0356 43.9745L37.888 44.8188L37.3171 47.9147C36.8151 50.5329 36.1261 54.1328 35.3485 58.1189C35.2763 58.5018 35.2009 58.8847 35.132 59.2414V59.2218C35.2829 63.005 35.4174 66.3823 35.5126 68.8303C35.5519 70.0379 35.5847 71.0131 35.6077 71.7069C35.6077 72.0342 35.6077 72.2928 35.6274 72.4858C35.6357 72.5751 35.6368 72.6648 35.6307 72.7542Z" fill="#263238"/>
<path d="M38.9341 65.0639C38.9352 64.9727 38.9451 64.8817 38.9637 64.7923C38.9932 64.6025 39.0293 64.344 39.0785 64.02C39.1933 63.3327 39.3508 62.3836 39.5444 61.1793C39.9545 58.7706 40.5287 55.4718 41.1389 51.8228C41.5556 49.437 41.946 47.1985 42.2807 45.2775V45.2578C43.1009 43.4055 43.7867 41.8575 44.2722 40.7547C44.5117 40.2245 44.7053 39.8023 44.8431 39.4947L44.9973 39.1674C45.0134 39.1279 45.0343 39.0905 45.0597 39.0562C45.0511 39.0968 45.0379 39.1363 45.0203 39.174C44.9842 39.2656 44.9415 39.3769 44.8858 39.5012C44.7545 39.8089 44.5774 40.2376 44.3543 40.7743C43.8785 41.8837 43.2125 43.4415 42.4185 45.3036C42.0904 47.2116 41.7098 49.4534 41.2997 51.849C40.6435 55.4947 40.0792 58.7903 39.6592 61.1989C39.4427 62.3804 39.2688 63.3425 39.1408 64.0265L38.9932 64.7956C38.9797 64.8863 38.96 64.9759 38.9341 65.0639Z" fill="#263238"/>
<path d="M27.6119 64.1019C27.5889 64.0856 27.8415 63.7256 28.1959 63.1201C28.6576 62.3126 29.0547 61.47 29.3836 60.6002C29.7108 59.7458 29.9826 58.8713 30.1972 57.9821C30.3613 57.2915 30.4368 56.8595 30.463 56.8628C30.4796 56.9658 30.4796 57.0707 30.463 57.1737C30.4433 57.3733 30.4007 57.6581 30.3318 58.0082C30.1521 58.922 29.8941 59.8187 29.5607 60.6885C29.2286 61.5597 28.8133 62.397 28.3205 63.1889C28.127 63.4932 27.9629 63.7288 27.8382 63.8859C27.7136 64.043 27.6119 64.1117 27.6119 64.1019Z" fill="#263238"/>
<g opacity="0.2">
<path d="M28.0616 63.6237C28.0084 63.6351 27.9584 63.6585 27.9155 63.692C27.8725 63.7255 27.8378 63.7682 27.8138 63.817C27.7898 63.8659 27.7772 63.9194 27.7769 63.9738C27.7767 64.0282 27.7887 64.0819 27.8123 64.1309C27.8685 64.2263 27.9529 64.302 28.0539 64.3477C28.1549 64.3934 28.2676 64.4068 28.3766 64.3862C28.5945 64.3413 28.7943 64.2331 28.9508 64.0753C29.4261 63.5884 29.7654 62.9859 29.935 62.3277C30.437 60.7503 30.46 59.055 30.4797 57.4187C30.0214 59.5789 29.2088 61.6489 28.0747 63.5451" fill="black"/>
</g>
<g opacity="0.2">
<path d="M35.2332 64.3929C34.2789 62.7979 33.8615 60.94 34.0422 59.0912C34.2194 56.5713 35.4464 54.2673 36.3618 51.9143C35.8369 54.3884 35.535 56.8462 35.0494 59.2254C35.0494 59.2254 35.3021 62.7632 35.3086 64.3308" fill="black"/>
</g>
<g opacity="0.2">
<path d="M39.3085 62.816C39.5644 59.0459 39.8236 55.2693 40.4897 51.5515C41.1649 47.7463 42.45 44.0743 44.2956 40.6765C43.8198 42.1688 42.3532 45.304 42.3532 45.304C42.3532 45.304 40.237 56.4311 39.3184 62.0469" fill="black"/>
</g>
<path d="M38.8317 67.1453L39.3599 72.9903H36.5941L34.1465 72.951C33.2139 73.0519 32.2746 73.076 31.338 73.023C31.2929 73.0244 31.248 73.0154 31.2068 72.9968C31.0615 72.9761 30.9186 72.941 30.7803 72.8921C30.5309 72.8004 30.275 72.6401 30.3144 72.3652C30.4358 71.5274 30.9345 71.4587 30.9345 71.4587H31.1838L31.2035 71.3867C30.8262 71.3867 30.5047 71.3867 30.3374 71.3572C30.2586 71.3572 30.2127 71.3408 30.2061 71.3278C30.1996 71.3147 29.2218 71.2132 29.3006 70.6961C29.4089 69.8321 29.9076 69.7634 29.9076 69.7634L30.7147 69.7111C30.3242 69.7111 29.9896 69.7111 29.819 69.6816C29.7402 69.6816 29.6943 69.6652 29.6877 69.6522C29.6812 69.6391 28.7034 69.5376 28.7822 69.0205C28.9036 68.1827 29.4023 68.114 29.4023 68.114L30.0585 68.0682C29.7304 68.0682 29.4777 68.0682 29.3301 68.042C29.2514 68.042 29.2054 68.0256 29.1989 68.0125C29.1923 67.9995 28.2146 67.898 28.2933 67.3809C28.4278 66.5399 28.9233 66.4908 28.9233 66.4908C28.9233 66.4908 30.4653 66.3795 31.5251 66.337C31.5251 66.337 32.7292 65.257 33.2016 65.3061C33.9103 65.3813 38.0246 66.8966 38.0246 66.8966L38.8317 67.1453Z" fill="#FFD1BD"/>
<path d="M33.6413 71.2791C33.1915 71.38 32.7307 71.424 32.2699 71.41C31.8171 71.4517 31.3608 71.4374 30.9116 71.3674C31.3613 71.2658 31.822 71.2207 32.283 71.2333C32.7358 71.1895 33.1925 71.2049 33.6413 71.2791Z" fill="#CC8F75"/>
<path d="M33.6483 69.6198C33.005 69.7324 32.3526 69.7861 31.6995 69.7802C31.044 69.8323 30.3852 69.8257 29.7309 69.7606C30.3743 69.6482 31.0267 69.5956 31.6798 69.6035C32.3351 69.5494 32.994 69.5549 33.6483 69.6198Z" fill="#CC8F75"/>
<g opacity="0.78">
<path d="M33.517 67.9378C32.8669 68.0488 32.208 68.1014 31.5485 68.0949C30.8931 68.1488 30.2341 68.1422 29.5799 68.0753C30.2236 67.9653 30.8758 67.9127 31.5288 67.9182C32.1907 67.8632 32.8563 67.8698 33.517 67.9378Z" fill="#CC8F75"/>
</g>
<path d="M31.0891 66.3531C31.2933 66.3927 31.5013 66.4091 31.7092 66.4022L33.2086 66.4513L34.708 66.5069C34.9152 66.528 35.1241 66.528 35.3314 66.5069C35.1307 66.4487 34.9234 66.4157 34.7146 66.4087C34.3307 66.3727 33.7992 66.3334 33.2119 66.3138C32.6246 66.2942 32.0964 66.2942 31.7092 66.3138C31.5017 66.3024 31.2935 66.3155 31.0891 66.3531Z" fill="#CC8F75"/>
<path d="M61.6287 18.7455C62.3243 17.0601 64.5225 16.291 66.2417 16.9194C67.9609 17.5477 69.1027 19.3019 69.3094 21.1149C69.4515 22.0095 69.2651 22.9253 68.7844 23.6938C68.4967 24.0692 68.1354 24.3823 67.7225 24.6141C67.3096 24.8459 66.8538 24.9915 66.3828 25.0421C65.5414 25.1593 64.6839 25.0511 63.8982 24.7288C63.1125 24.4064 62.4269 23.8814 61.9117 23.2076C61.3965 22.5338 61.0702 21.7355 60.9663 20.8945C60.8623 20.0534 60.9845 19.1999 61.3203 18.4215" fill="#263238"/>
<path d="M68.6232 18.9694C68.6232 18.9694 68.5903 19.0578 68.4985 19.1952C68.3677 19.3864 68.2206 19.5659 68.0588 19.7319C67.5211 20.2877 66.8589 20.7083 66.1266 20.9592C65.3942 21.2101 64.6127 21.2841 63.8461 21.1752C63.6159 21.1423 63.3888 21.0909 63.167 21.0213C63.0826 21.0023 63.0025 20.9679 62.9307 20.9199C62.9307 20.8904 63.2851 21.0017 63.8592 21.0541C64.606 21.1264 65.3597 21.0382 66.0694 20.7955C66.7791 20.5527 67.4284 20.161 67.9735 19.6468C68.3837 19.2508 68.5903 18.953 68.6232 18.9694Z" fill="#455A64"/>
<path d="M69.3414 20.8928C69.3414 20.8928 69.2824 20.9648 69.1544 21.0695C68.9727 21.2184 68.782 21.3561 68.5835 21.4819C67.9295 21.9051 67.2052 22.2088 66.4444 22.3786C66.0223 22.4631 65.5915 22.496 65.1615 22.4767C64.8116 22.4593 64.4649 22.4023 64.128 22.3066C63.9017 22.2465 63.6819 22.1643 63.4718 22.0611C63.3242 21.9891 63.2422 21.9433 63.2487 21.9335C63.2553 21.9237 63.5965 22.0578 64.1641 22.192C64.4959 22.2679 64.8344 22.3118 65.1746 22.3229C65.5919 22.3307 66.0089 22.2934 66.4181 22.2117C67.1603 22.0437 67.8719 21.7622 68.5278 21.3771C69.0297 21.0859 69.325 20.8699 69.3414 20.8928Z" fill="#455A64"/>
<path d="M43.8843 23.7832C39.8224 14.8718 49.4848 10.3981 54.754 11.8806C59.7082 13.278 61.8211 15.7358 62.6283 19.0411C63.4354 22.3465 63.4058 25.9137 62.1066 29.0784C61.4504 30.6296 60.3119 32.2103 58.6386 32.4034" fill="#263238"/>
<path d="M48.7374 45.8042C48.6652 41.5498 48.616 35.6983 48.616 35.7245C48.616 35.7507 44.9479 35.1158 44.1868 30.341C43.8094 27.9683 43.9276 24.0738 44.1277 20.8928C44.3114 18.026 46.2111 14.5144 49.0754 14.8155L58.0094 17.0736C58.4289 17.1178 58.8166 17.3176 59.0955 17.6334C59.3744 17.9492 59.5242 18.3579 59.5153 18.7787L58.9313 37.2103" fill="#FFD1BD"/>
<path d="M46.3125 24.2734C46.3098 24.4319 46.3687 24.5853 46.4771 24.7013C46.5854 24.8172 46.7346 24.8868 46.8933 24.8952C46.9708 24.9024 47.049 24.894 47.1232 24.8706C47.1974 24.8472 47.2662 24.8092 47.3255 24.7589C47.3848 24.7086 47.4334 24.647 47.4685 24.5777C47.5036 24.5083 47.5244 24.4327 47.5298 24.3552C47.5334 24.1965 47.4747 24.0427 47.3662 23.9265C47.2577 23.8104 47.108 23.7411 46.949 23.7334C46.8715 23.7263 46.7933 23.7346 46.7191 23.7581C46.6449 23.7815 46.5761 23.8194 46.5168 23.8697C46.4575 23.9201 46.4089 23.9817 46.3738 24.051C46.3387 24.1203 46.3179 24.196 46.3125 24.2734Z" fill="#263238"/>
<path d="M52.9402 24.2734C52.9366 24.4321 52.9952 24.586 53.1037 24.7021C53.2122 24.8183 53.3619 24.8876 53.5209 24.8952C53.5984 24.9024 53.6766 24.894 53.7508 24.8706C53.825 24.8472 53.8938 24.8092 53.9531 24.7589C54.0124 24.7086 54.0611 24.647 54.0961 24.5777C54.1312 24.5083 54.152 24.4327 54.1574 24.3552C54.1602 24.1968 54.1012 24.0434 53.9929 23.9274C53.8846 23.8114 53.7353 23.7419 53.5767 23.7334C53.4991 23.7263 53.421 23.7346 53.3467 23.7581C53.2725 23.7815 53.2037 23.8194 53.1444 23.8697C53.0851 23.9201 53.0365 23.9817 53.0014 24.051C52.9663 24.1203 52.9455 24.196 52.9402 24.2734Z" fill="#263238"/>
<path d="M48.9802 27.6644C48.6316 27.5574 48.2714 27.4926 47.9073 27.4713C47.7367 27.4549 47.5792 27.4222 47.5497 27.3077C47.5348 27.1333 47.5737 26.9586 47.6612 26.8069L48.1599 25.5273C48.8522 23.7012 49.3542 22.2023 49.282 22.1761C49.2098 22.1499 48.5865 23.6063 47.8942 25.4291C47.7269 25.8775 47.5661 26.3062 47.4152 26.7186C47.3089 26.9194 47.2775 27.1513 47.3266 27.3731C47.3511 27.433 47.3889 27.4865 47.4372 27.5296C47.4856 27.5727 47.5431 27.6042 47.6055 27.6218C47.6987 27.646 47.7945 27.6592 47.8909 27.6611C48.2523 27.7098 48.6185 27.7109 48.9802 27.6644Z" fill="#263238"/>
<path d="M48.6092 35.7437C50.8635 35.7773 53.0829 35.1859 55.0201 34.0354C55.0201 34.0354 53.3961 37.3637 48.6092 36.9121V35.7437Z" fill="#CC8F75"/>
<path d="M58.5999 24.794C58.6721 24.7613 61.1623 23.6617 61.1918 26.5187C61.2214 29.3757 58.3374 28.8096 58.3309 28.7376C58.3243 28.6656 58.5999 24.794 58.5999 24.794Z" fill="#FFD1BD"/>
<path d="M59.197 27.6444C59.197 27.6444 59.2462 27.6771 59.3315 27.7164C59.4514 27.7651 59.5856 27.7651 59.7055 27.7164C60.0074 27.6018 60.2567 27.1207 60.2666 26.6069C60.2707 26.3612 60.2203 26.1175 60.1189 25.8935C60.091 25.8046 60.0417 25.7239 59.9754 25.6583C59.909 25.5927 59.8277 25.5443 59.7383 25.5171C59.6812 25.5024 59.6208 25.5081 59.5674 25.5332C59.5141 25.5584 59.4713 25.6013 59.4463 25.6546C59.407 25.7364 59.4266 25.792 59.4102 25.7986C59.3938 25.8051 59.3479 25.7495 59.3709 25.6317C59.387 25.561 59.4263 25.4977 59.4824 25.4517C59.561 25.3918 59.6598 25.3648 59.758 25.3764C59.8758 25.3987 59.9858 25.4507 60.0777 25.5275C60.1696 25.6043 60.2403 25.7032 60.283 25.8149C60.4094 26.0606 60.4715 26.3342 60.4634 26.6102C60.4634 27.1862 60.1616 27.7262 59.7482 27.8505C59.6717 27.8742 59.5908 27.8801 59.5117 27.8676C59.4326 27.8551 59.3575 27.8246 59.2921 27.7785C59.2035 27.7131 59.1871 27.6509 59.197 27.6444Z" fill="#CC8F75"/>
<path d="M49.1738 29.5098C49.2571 29.7589 49.3776 29.9939 49.5315 30.2069C49.6076 30.3133 49.7054 30.4024 49.8185 30.4684C49.9316 30.5344 50.0574 30.5758 50.1876 30.5898C50.331 30.5907 50.4722 30.555 50.5979 30.4863C50.7237 30.4176 50.8297 30.3181 50.9062 30.1971C51.0529 29.9576 51.1217 29.6786 51.103 29.3985C51.103 29.1465 50.9751 28.8455 50.7257 28.816C50.6198 28.8125 50.5147 28.8362 50.4206 28.8847L49.1082 29.4149" fill="#CC8F75"/>
<path d="M49.6989 30.5867C49.9373 30.6048 50.177 30.5759 50.4043 30.5016C50.6343 30.4112 50.8234 30.2402 50.9358 30.0205C50.9961 29.885 51.0273 29.7384 51.0273 29.5902C51.0273 29.4419 50.9961 29.2953 50.9358 29.1598C50.9053 29.0901 50.8667 29.0242 50.821 28.9635C50.7685 28.9078 50.7783 28.9111 50.7225 28.9209C50.6668 28.9307 50.5815 28.9765 50.5093 29.0027L50.2927 29.0911C50.0106 29.2056 49.7547 29.3038 49.5414 29.3856C49.3155 29.496 49.0726 29.5679 48.8229 29.5983C49.0209 29.4425 49.2423 29.3188 49.4791 29.2318C49.6858 29.1304 49.9351 29.0158 50.2107 28.9045L50.424 28.8096C50.503 28.7723 50.584 28.7395 50.6668 28.7115C50.7295 28.6903 50.7976 28.6903 50.8603 28.7115C50.9181 28.7373 50.9687 28.7765 51.008 28.826C51.066 28.9045 51.1155 28.989 51.1556 29.078C51.2272 29.2453 51.2605 29.4263 51.2531 29.6081C51.2458 29.7898 51.1979 29.9676 51.113 30.1285C50.9738 30.3874 50.7381 30.5814 50.4568 30.6685C50.272 30.7271 50.0748 30.7351 49.8859 30.6914C49.7579 30.6456 49.6956 30.5998 49.6989 30.5867Z" fill="#263238"/>
<path d="M61.815 22.837C61.5197 22.8174 59.1542 23.1217 59.3412 27.5103C59.5151 31.611 62.3958 30.7077 63.3177 29.1663C64.1872 27.7034 64.6859 23.0399 61.815 22.837Z" fill="#455A64"/>
<path d="M63.2791 23.3579C63.2758 23.3198 63.2758 23.2815 63.2791 23.2434C63.2791 23.155 63.2791 23.047 63.2791 22.9161C63.2791 22.615 63.2594 22.1929 63.243 21.666C63.2233 20.5893 63.1938 19.0937 63.1577 17.3624L63.2102 17.4148H61.9634L62.0192 17.3592C62.0192 17.6864 62.0389 18.03 62.0455 18.3802C62.0881 20.0165 62.1275 21.558 62.157 22.8441V22.8801H62.1177C61.6183 22.996 61.1744 23.2804 60.8611 23.6852C60.6253 24.0022 60.4547 24.3625 60.3591 24.7455C60.2961 24.9915 60.2533 25.2421 60.2311 25.495C60.2311 25.5833 60.2311 25.6488 60.2311 25.6946C60.2311 25.7404 60.2311 25.7633 60.2311 25.7633C60.2269 25.7406 60.2269 25.7173 60.2311 25.6946C60.2311 25.6488 60.2311 25.5833 60.2311 25.4917C60.2435 25.236 60.2787 24.9819 60.3361 24.7324C60.4247 24.3392 60.5934 23.9683 60.8315 23.6427C61.1551 23.2133 61.6196 22.9109 62.1439 22.7885L62.1078 22.8343C62.0717 21.5514 62.0258 20.0198 61.9799 18.3737C61.9799 18.0235 61.9602 17.6766 61.9536 17.3493V17.2937H63.2824V17.3461C63.3021 19.074 63.3185 20.5729 63.3316 21.6496C63.3316 22.1765 63.3316 22.5987 63.3316 22.8998V23.227C63.318 23.2721 63.3004 23.3159 63.2791 23.3579Z" fill="#455A64"/>
<path d="M61.8149 17.3517C60.9272 15.4959 59.456 13.9801 57.6252 13.0351C56.4978 12.4736 55.3131 12.0347 54.0916 11.726C54.0916 11.726 55.8141 11.3202 58.5996 12.554C59.8628 13.1169 61.1391 13.863 61.9823 14.943C62.5171 15.6401 63.1864 16.9982 63.1831 17.3484L61.8149 17.3517Z" fill="#455A64"/>
<path d="M61.4995 30.391C61.4699 30.3888 61.441 30.381 61.4142 30.3681C61.3378 30.3362 61.2643 30.2979 61.1944 30.2535C60.939 30.087 60.7266 29.8627 60.5743 29.599C60.3584 29.2017 60.2287 28.7634 60.1937 28.3128C60.1447 27.7685 60.1447 27.2208 60.1937 26.6765C60.2401 26.1311 60.3312 25.5904 60.466 25.0598C60.5606 24.62 60.7198 24.1965 60.9385 23.8031C61.0918 23.5391 61.3054 23.3148 61.5619 23.1486C61.6309 23.1037 61.7046 23.0664 61.7817 23.0373C61.8084 23.0244 61.8374 23.0166 61.867 23.0144C61.867 23.0144 61.7587 23.0635 61.5849 23.1846C61.3463 23.3586 61.1482 23.5818 61.0041 23.8391C60.8012 24.2305 60.6532 24.6478 60.5645 25.0795C60.4365 25.6066 60.3487 26.1427 60.302 26.6831C60.2578 27.2221 60.2578 27.7639 60.302 28.303C60.3308 28.7422 60.4492 29.171 60.6498 29.563C60.7913 29.8211 60.9885 30.0447 61.2272 30.2175C61.4044 30.3419 61.5028 30.3812 61.4995 30.391Z" fill="#263238"/>
<path d="M52.0099 29.7284L49.7433 30.1719C49.441 30.2311 49.2441 30.5235 49.3034 30.825L49.3368 30.9952C49.3961 31.2967 49.6893 31.4932 49.9915 31.434L52.2581 30.9905C52.5604 30.9313 52.7574 30.6389 52.6981 30.3374L52.6646 30.1672C52.6053 29.8657 52.3122 29.6692 52.0099 29.7284Z" fill="#455A64"/>
<path d="M52.3823 30.06L62.4383 26.9118C62.4984 26.8919 62.5619 26.8841 62.625 26.8888C62.6881 26.8935 62.7497 26.9107 62.8062 26.9393C62.8626 26.9679 62.9128 27.0074 62.9539 27.0554C62.9949 27.1035 63.026 27.1592 63.0453 27.2194C63.0648 27.2804 63.0718 27.3447 63.0657 27.4084C63.0597 27.4722 63.0408 27.5341 63.0101 27.5903C62.9795 27.6466 62.9377 27.6961 62.8874 27.7358C62.837 27.7755 62.7792 27.8047 62.7172 27.8215L52.4315 30.5935L52.3823 30.06Z" fill="#455A64"/>
<path d="M59.8139 28.6763C59.9208 28.6315 60.0304 28.5932 60.142 28.5617L61.0606 28.2803C61.4478 28.1625 61.9203 28.0381 62.4222 27.8745C62.5445 27.8302 62.6562 27.7612 62.7503 27.6716C62.8419 27.5781 62.8927 27.4521 62.8914 27.3214C62.8914 27.2579 62.8714 27.196 62.8344 27.1443C62.7973 27.0927 62.745 27.0539 62.6847 27.0334C62.5472 26.9961 62.4022 26.9961 62.2647 27.0334L59.2496 28.0152L58.3309 28.2999C58.2237 28.3369 58.1141 28.3664 58.0028 28.3883C58.1088 28.3366 58.2184 28.2928 58.3309 28.2574L59.2397 27.9301C60.0075 27.6716 61.0639 27.3083 62.2516 26.9483C62.4088 26.9007 62.5767 26.9007 62.7339 26.9483C62.815 26.9756 62.8854 27.0275 62.9355 27.0968C62.9855 27.166 63.0125 27.2491 63.0128 27.3345C63.0139 27.4134 62.999 27.4917 62.9692 27.5648C62.9393 27.6379 62.895 27.7042 62.8389 27.7599C62.7342 27.8608 62.6089 27.9378 62.4714 27.9857C61.9531 28.1494 61.4872 28.2606 61.0967 28.3719L60.1682 28.6174C60.0523 28.6484 59.9336 28.6681 59.8139 28.6763Z" fill="#263238"/>
<path d="M54.5379 22.8824C54.4592 23.0035 53.7702 22.6304 52.9172 22.7809C52.0641 22.9315 51.5359 23.5075 51.4243 23.4191C51.3686 23.3831 51.4243 23.1704 51.654 22.9119C51.9644 22.5772 52.3776 22.355 52.8286 22.2802C53.2765 22.1998 53.7385 22.2712 54.1409 22.4831C54.4526 22.6369 54.5773 22.83 54.5379 22.8824Z" fill="#CC8F75"/>
<path d="M54.4399 22.9908C54.2812 22.9613 54.1245 22.9219 53.9707 22.8729C53.5969 22.7903 53.2094 22.7903 52.8355 22.8729C52.4641 22.9601 52.116 23.1264 51.8152 23.3606C51.5822 23.5438 51.4608 23.6878 51.4411 23.6682C51.4214 23.6486 51.5133 23.4849 51.7364 23.2689C52.0335 22.9897 52.4004 22.7953 52.7987 22.7061C53.197 22.6169 53.612 22.6361 54.0003 22.7617C54.2955 22.8533 54.4498 22.9646 54.4399 22.9908Z" fill="#263238"/>
<path d="M54.8824 21.0702C54.8103 21.2992 54.0786 21.2829 53.2092 21.3254C52.3397 21.368 51.6048 21.4171 51.5228 21.1945C51.4834 21.0832 51.6343 20.9163 51.9329 20.7658C52.7253 20.409 53.6263 20.3761 54.4428 20.6742C54.7512 20.8018 54.912 20.9589 54.8824 21.0702Z" fill="#263238"/>
<path d="M47.6671 23.3871C47.6015 23.4231 47.4736 23.3021 47.2636 23.1581C47.0045 22.9764 46.707 22.8566 46.3941 22.8079C45.6526 22.6868 45.0555 23.0272 44.9702 22.9061C44.9308 22.857 45.0326 22.6868 45.2983 22.5232C45.6534 22.3155 46.0696 22.2369 46.4762 22.3006C46.8901 22.3583 47.2654 22.5742 47.5228 22.9028C47.7065 23.1581 47.7229 23.3577 47.6671 23.3871Z" fill="#CC8F75"/>
<path d="M47.7499 23.7393C47.727 23.7393 47.6154 23.5921 47.3825 23.3859C47.0846 23.117 46.7211 22.9307 46.3285 22.8457C45.9358 22.7607 45.5277 22.78 45.1449 22.9015C44.8496 22.9932 44.679 23.0946 44.6658 23.0717C44.6527 23.0488 44.8004 22.9146 45.1055 22.787C45.5057 22.628 45.9443 22.5916 46.3654 22.6823C46.7869 22.7729 47.1712 22.9885 47.4678 23.3008C47.6006 23.4182 47.6983 23.57 47.7499 23.7393Z" fill="#263238"/>
<path d="M48.0453 21.3583C48.0026 21.5907 47.3038 21.6594 46.477 21.6692C45.6502 21.679 44.9481 21.6168 44.9022 21.3812C44.8562 21.1456 45.5583 20.8216 46.4704 20.815C47.3825 20.8085 48.0912 21.1292 48.0453 21.3583Z" fill="#263238"/>
<path d="M55.7719 14.5871C55.2144 15.3391 54.7721 16.1696 54.4595 17.0514C54.3061 17.4935 54.2515 17.9636 54.2997 18.4289C54.3479 18.8943 54.4976 19.3434 54.7384 19.7448C55.2437 20.4812 56.1066 20.8706 56.894 21.2993C57.6814 21.728 58.4852 22.3171 58.6821 23.1876C58.7412 23.4593 58.6263 24.4149 58.8297 24.6047C59.1119 24.8632 59.6073 24.7029 59.814 24.3854C60.0207 24.068 60.1684 23.0175 60.1749 22.6346L60.2241 19.0674C60.2241 18.0594 60.2242 17.0154 59.7878 16.122C59.1743 14.8522 57.9078 14.4464 56.0574 14.538" fill="#263238"/>
<path d="M44.0159 21.7474C44.1565 20.5333 44.6261 19.3804 45.3742 18.4125C46.1305 17.4458 47.2206 16.7948 48.432 16.5864C49.6394 16.4031 50.8599 16.7369 52.0805 16.8057C53.301 16.8744 54.6855 16.5766 55.322 15.5391C55.5222 15.2119 55.614 14.7603 55.3614 14.4788C55.2589 14.3775 55.1374 14.2975 55.0038 14.2432C53.385 13.4592 51.571 13.1668 49.7871 13.4021C47.9967 13.6491 46.3651 14.5593 45.2167 15.9515C44.6534 16.651 44.2567 17.469 44.0566 18.3438C43.8566 19.2185 43.8584 20.1272 44.0618 21.0012" fill="#263238"/>
<path d="M43.2901 19.9539C43.2648 19.9053 43.246 19.8536 43.2343 19.8001C43.1898 19.6479 43.1569 19.4926 43.1359 19.3354C43.0651 18.7522 43.121 18.1606 43.2999 17.6009C43.5657 16.7642 44.0654 16.0205 44.7403 15.4573C45.5666 14.769 46.5643 14.3167 47.6275 14.1482C48.6829 13.9865 49.76 14.0343 50.7969 14.289C51.2422 14.3949 51.6805 14.5282 52.1093 14.6882C52.5194 14.8388 52.8836 15.0155 53.2346 15.0973C53.7877 15.2475 54.3632 15.2985 54.9341 15.2478C55.1398 15.205 55.3315 15.1116 55.4919 14.9762C55.4616 15.0233 55.4239 15.0653 55.3804 15.1006C55.2561 15.2046 55.1087 15.2775 54.9506 15.3133C54.3666 15.3936 53.7725 15.3591 53.2018 15.2118C52.8409 15.1235 52.4669 14.9631 52.0633 14.8224C51.6339 14.6697 51.1957 14.5429 50.7509 14.4428C49.7332 14.2011 48.6782 14.1578 47.6439 14.3151C46.6126 14.4756 45.6425 14.9059 44.8321 15.562C44.1741 16.1028 43.6799 16.8155 43.4049 17.6205C43.2184 18.1628 43.1469 18.7379 43.1949 19.3092C43.2409 19.7314 43.3065 19.9506 43.2901 19.9539Z" fill="#455A64"/>
<path d="M48.5866 12.4466C48.6835 12.4114 48.7854 12.3915 48.8885 12.3877C49.1666 12.3594 49.4469 12.3594 49.7251 12.3877C50.6536 12.4759 51.5373 12.828 52.2711 13.4023C52.6943 13.7295 53.0487 14.1059 53.426 14.3579C53.7612 14.5782 54.1371 14.7295 54.5317 14.803C54.7957 14.8661 55.0685 14.8849 55.3388 14.8586C55.5291 14.8357 55.6242 14.7833 55.6341 14.7964C55.5546 14.8656 55.4565 14.91 55.3519 14.924C55.0734 14.9771 54.7873 14.9771 54.5087 14.924C54.092 14.8643 53.6928 14.7171 53.3374 14.4921C52.9404 14.2335 52.5762 13.867 52.1661 13.5397C51.4537 12.9858 50.607 12.6302 49.712 12.5088C49.023 12.4139 48.5899 12.4925 48.5866 12.4466Z" fill="#455A64"/>
<path d="M63.075 21.2103C63.075 21.2103 63.0094 21.099 62.8716 20.9157C62.6683 20.6628 62.4073 20.462 62.1104 20.3299C61.6706 20.1362 61.1935 20.0412 60.7128 20.0518C60.1177 20.0848 59.5263 20.1658 58.9443 20.2939C58.3491 20.425 57.7382 20.4713 57.13 20.4314C56.634 20.3887 56.1474 20.2718 55.6864 20.0845C55.3762 19.9591 55.0804 19.8012 54.8038 19.6132C54.6944 19.5469 54.5968 19.4628 54.5151 19.3645C54.9028 19.5914 55.3063 19.7905 55.7225 19.9601C56.1777 20.1249 56.6535 20.2262 57.1365 20.2612C57.73 20.292 58.3249 20.2424 58.905 20.1139C59.4961 19.9826 60.0978 19.9048 60.7029 19.8816C61.2063 19.8767 61.7039 19.9888 62.1564 20.2088C62.4632 20.3581 62.7265 20.5835 62.9208 20.8634C62.9694 20.9403 63.0111 21.0214 63.0455 21.1056C63.0718 21.1776 63.0816 21.2103 63.075 21.2103Z" fill="#455A64"/>
<path d="M62.5563 18.9198C62.5563 18.9198 62.494 18.8086 62.3529 18.6318C62.1462 18.3929 61.8836 18.2086 61.5884 18.0951C61.1462 17.9325 60.6705 17.8819 60.2039 17.9478C59.6756 18.0002 59.1015 18.1606 58.4814 18.2751C57.8941 18.4095 57.2829 18.4005 56.6998 18.2489C56.2269 18.1035 55.7997 17.8386 55.4596 17.4799C55.2299 17.2441 55.0444 16.9692 54.9117 16.6682C54.8831 16.587 54.8601 16.5039 54.8428 16.4195C54.8371 16.3892 54.8371 16.3582 54.8428 16.3279C55.0249 16.7238 55.2734 17.0857 55.5778 17.398C55.9138 17.726 56.3248 17.9675 56.7753 18.1017C57.3371 18.2364 57.9229 18.2364 58.4847 18.1017C59.0916 17.9871 59.6724 17.83 60.2236 17.7744C60.7134 17.7139 61.2106 17.7804 61.6672 17.9675C61.9753 18.096 62.242 18.3066 62.4382 18.5762C62.5066 18.6787 62.5473 18.797 62.5563 18.9198Z" fill="#455A64"/>
<path d="M50.2501 51.6494L50.3125 51.5971L50.4929 51.4531C50.7227 51.2646 50.9417 51.0636 51.1491 50.8509C51.4861 50.507 51.8007 50.1419 52.0907 49.7578C52.4188 49.3127 52.8027 48.776 53.2062 48.1804C54.0134 46.9892 54.9583 45.5361 55.9622 43.8638C56.4642 43.026 56.9826 42.1325 57.5043 41.19C57.6355 40.9544 57.7635 40.7155 57.898 40.4766C58.0242 40.2248 58.1748 39.9858 58.3475 39.7631C58.5274 39.5334 58.7684 39.3588 59.043 39.2591C59.1836 39.2035 59.3366 39.1865 59.486 39.2101C59.5649 39.2291 59.6373 39.2686 59.6959 39.3246C59.7493 39.3876 59.7884 39.4612 59.8108 39.5406V39.557C59.7791 39.6573 59.7265 39.7498 59.6566 39.8286C59.5813 39.9092 59.4781 39.9583 59.3679 39.966C59.162 39.9656 58.9622 39.8965 58.8003 39.7697C58.6313 39.649 58.506 39.4769 58.4433 39.2793C58.3806 39.0816 58.3838 38.869 58.4525 38.6733C58.5241 38.4671 58.6736 38.2968 58.8692 38.1988C59.0598 38.0999 59.2785 38.0687 59.4893 38.1104C59.6001 38.1274 59.7047 38.1724 59.7932 38.2411C59.8816 38.3099 59.951 38.4001 59.9945 38.5032C60.0171 38.5618 60.0224 38.6257 60.0096 38.6872C59.9968 38.7487 59.9665 38.8053 59.9223 38.8501C59.8404 38.9293 59.7383 38.9848 59.627 39.0104C59.4408 39.0529 59.2457 39.0329 59.0719 38.9536C58.8981 38.8744 58.7554 38.7402 58.6657 38.5719C58.5763 38.3982 58.5552 38.1974 58.6067 38.009C58.657 37.8256 58.7596 37.6608 58.902 37.5345C59.0415 37.4089 59.2226 37.339 59.4105 37.3381C59.5056 37.339 59.5992 37.3623 59.6836 37.406C59.768 37.4498 59.8408 37.5129 59.8961 37.5901C59.9533 37.6757 59.9745 37.7803 59.9551 37.8814C59.9464 37.931 59.9276 37.9783 59.8999 38.0205C59.8723 38.0627 59.8364 38.0988 59.7944 38.1268C59.7176 38.1795 59.6291 38.2129 59.5366 38.2243C59.4441 38.2357 59.3502 38.2247 59.2629 38.1923C59.1785 38.1557 59.1027 38.1018 59.0405 38.0342C58.9784 37.9665 58.9311 37.8866 58.902 37.7995C58.8452 37.6321 58.8186 37.4559 58.8232 37.2792C58.8134 36.9339 58.9034 36.5931 59.0824 36.2974C59.1774 36.1488 59.3231 36.0396 59.4925 35.9898C59.5769 35.9713 59.6641 35.9695 59.7491 35.9847C59.8341 35.9999 59.9153 36.0316 59.9879 36.0781C60.0664 36.1216 60.1312 36.1859 60.1752 36.2639C60.2192 36.3419 60.2407 36.4305 60.2373 36.5199C60.2263 36.6085 60.1893 36.6918 60.1309 36.7593C60.0725 36.8269 59.9954 36.8757 59.9092 36.8996C59.8287 36.9266 59.7428 36.9339 59.6588 36.9208C59.5749 36.9077 59.4953 36.8746 59.4269 36.8243C59.2971 36.7178 59.2107 36.5677 59.1841 36.4021C59.1582 36.2429 59.1729 36.0797 59.2268 35.9276C59.2642 35.7781 59.3181 35.6332 59.3875 35.4956C59.4588 35.3596 59.5667 35.2462 59.6992 35.1683C59.8274 35.0886 59.9722 35.0393 60.1225 35.0243C60.2003 35.0132 60.2797 35.0234 60.3521 35.0538C60.4208 35.0916 60.4802 35.1442 60.526 35.2076C60.5721 35.27 60.6045 35.3414 60.6212 35.4171C60.6431 35.4971 60.6337 35.5825 60.5949 35.656C60.5514 35.7206 60.4891 35.7703 60.4163 35.7984C60.3435 35.8265 60.2639 35.8316 60.1881 35.813C60.0465 35.7886 59.9159 35.7212 59.8141 35.62C59.6168 35.4236 59.4999 35.1612 59.486 34.8836C59.4673 34.6175 59.5377 34.3528 59.6861 34.1309C59.7597 34.0251 59.8547 33.9359 59.965 33.8691C60.0746 33.8082 60.1972 33.7745 60.3226 33.7709C60.4484 33.7629 60.5729 33.8001 60.6737 33.8756C60.7224 33.9147 60.7611 33.9648 60.7868 34.0216C60.8124 34.0785 60.8243 34.1406 60.8213 34.2029C60.8041 34.3205 60.7484 34.4291 60.663 34.5119C60.5776 34.5948 60.4672 34.6472 60.3489 34.6611C60.2393 34.6673 60.1303 34.6419 60.0349 34.5879C59.9395 34.5339 59.8617 34.4536 59.8108 34.3567C59.707 34.1821 59.66 33.9798 59.6763 33.7774C59.7463 33.4344 59.8668 33.1035 60.0339 32.7957L60.3915 31.984C60.6048 31.4997 60.7754 31.1233 60.8902 30.8648L61.0214 30.5735C61.0361 30.54 61.0525 30.5072 61.0707 30.4753C61.0599 30.51 61.0468 30.5439 61.0313 30.5768L60.9099 30.8713L60.4309 32.0004L60.0929 32.7826C59.937 33.0925 59.8265 33.4231 59.7648 33.7644C59.7499 33.9533 59.7946 34.1421 59.8928 34.3043C59.9386 34.3893 60.0076 34.4597 60.0918 34.5072C60.176 34.5547 60.2719 34.5774 60.3685 34.5727C60.4687 34.5594 60.562 34.5144 60.6346 34.4443C60.7073 34.3742 60.7554 34.2827 60.7721 34.1833C60.7743 34.1322 60.7644 34.0813 60.7434 34.0347C60.7223 33.9881 60.6905 33.9471 60.6507 33.9149C60.5632 33.8547 60.4583 33.8248 60.3521 33.8298C60.2371 33.8345 60.1248 33.8659 60.024 33.9214C59.9247 33.9834 59.8388 34.0647 59.7714 34.1604C59.635 34.3661 59.5715 34.6115 59.591 34.8574C59.6021 35.1125 59.7086 35.3542 59.8895 35.5349C59.9785 35.6236 60.0934 35.682 60.2176 35.7018C60.2771 35.7196 60.3407 35.7184 60.3995 35.6985C60.4583 35.6785 60.5094 35.6408 60.5457 35.5905C60.5637 35.5351 60.5674 35.4761 60.5565 35.4189C60.5456 35.3617 60.5205 35.3082 60.4834 35.2632C60.4463 35.2117 60.3981 35.1692 60.3423 35.1389C60.284 35.1156 60.2208 35.1077 60.1586 35.116C60.0208 35.1272 59.8881 35.1733 59.7733 35.2501C59.6584 35.3269 59.5652 35.4316 59.5024 35.5545C59.4364 35.6849 59.3847 35.8221 59.3482 35.9636C59.3006 36.1013 59.2882 36.2486 59.3121 36.3923C59.3339 36.5328 59.4077 36.66 59.5188 36.749C59.5739 36.7903 59.6382 36.8175 59.7063 36.8284C59.7743 36.8392 59.844 36.8333 59.9092 36.8112C59.9761 36.7935 60.0361 36.7564 60.0817 36.7045C60.1273 36.6526 60.1563 36.5884 60.1651 36.5199C60.1658 36.4496 60.1472 36.3804 60.1114 36.3199C60.0755 36.2593 60.0238 36.2097 59.9617 36.1763C59.8379 36.0982 59.6884 36.0712 59.545 36.101C59.4016 36.1479 59.2788 36.2427 59.1972 36.3694C59.0326 36.6487 58.9496 36.9684 58.9577 37.2923C58.9542 37.4548 58.9798 37.6166 59.0332 37.7701C59.0575 37.8418 59.0962 37.9078 59.147 37.9641C59.1978 38.0204 59.2595 38.0657 59.3285 38.0974C59.4 38.1227 59.4764 38.1309 59.5517 38.1212C59.627 38.1116 59.6989 38.0843 59.7616 38.0417C59.7916 38.0214 59.8173 37.9953 59.8371 37.965C59.857 37.9347 59.8707 37.9008 59.8774 37.8652C59.8841 37.8296 59.8837 37.7931 59.8762 37.7577C59.8687 37.7223 59.8543 37.6887 59.8337 37.6588C59.7881 37.5964 59.7284 37.5455 59.6594 37.5103C59.5905 37.475 59.5142 37.4564 59.4368 37.4559C59.2753 37.4571 59.1199 37.5177 59.0004 37.6261C58.8662 37.7281 58.7717 37.8734 58.733 38.0372C58.6943 38.201 58.7138 38.3731 58.7882 38.5241C58.8625 38.6752 58.9871 38.7958 59.1407 38.8654C59.2943 38.935 59.4674 38.9492 59.6303 38.9057C59.7217 38.8868 59.8059 38.8426 59.8731 38.7781C59.9016 38.7481 59.9211 38.7107 59.9292 38.6701C59.9373 38.6296 59.9338 38.5876 59.9191 38.549C59.8822 38.463 59.824 38.3879 59.75 38.3306C59.6759 38.2734 59.5884 38.2359 59.4958 38.2217C59.3101 38.1817 59.1161 38.2092 58.9489 38.2992C58.7817 38.3892 58.6521 38.5358 58.5837 38.7126C58.5214 38.8894 58.5199 39.0818 58.5793 39.2595C58.6387 39.4373 58.7557 39.5903 58.9118 39.6944C59.0536 39.8071 59.2292 39.8693 59.4105 39.8711C59.495 39.8583 59.5735 39.8202 59.6356 39.7617C59.6978 39.7032 59.7406 39.6272 59.7583 39.5439V39.5733C59.7453 39.5133 59.7156 39.4582 59.6727 39.4142C59.6297 39.3702 59.5753 39.3392 59.5155 39.3246C59.3847 39.3059 59.2512 39.3217 59.1283 39.3704C58.8696 39.4612 58.642 39.6235 58.4722 39.8384C58.3059 40.0566 58.1588 40.2888 58.0325 40.5322C57.9013 40.7744 57.77 41.0133 57.6388 41.2489C57.1139 42.1914 56.5922 43.0816 56.0869 43.9194C55.0797 45.5917 54.1184 47.0382 53.3112 48.2295C52.9011 48.8218 52.5304 49.3553 52.1793 49.8004C51.8834 50.1814 51.5634 50.5433 51.2213 50.8836C50.9254 51.1721 50.5998 51.4288 50.2501 51.6494Z" fill="#263238"/>
</g>
<defs>
<filter id="filter0_d_62_1176" x="0" y="0" width="98.0002" height="96.3608" filterUnits="userSpaceOnUse" color-interpolation-filters="sRGB">
<feFlood flood-opacity="0" result="BackgroundImageFix"/>
<feColorMatrix in="SourceAlpha" type="matrix" values="0 0 0 0 0 0 0 0 0 0 0 0 0 0 0 0 0 0 127 0" result="hardAlpha"/>
<feOffset dx="1" dy="8"/>
<feGaussianBlur stdDeviation="5"/>
<feComposite in2="hardAlpha" operator="out"/>
<feColorMatrix type="matrix" values="0 0 0 0 0.52549 0 0 0 0 0.556863 0 0 0 0 0.588235 0 0 0 0.25 0"/>
<feBlend mode="normal" in2="BackgroundImageFix" result="effect1_dropShadow_62_1176"/>
<feBlend mode="normal" in="SourceGraphic" in2="effect1_dropShadow_62_1176" result="shape"/>
</filter>
</defs>
</svg>
