<svg width="35" height="35" viewBox="0 0 35 35" fill="none" xmlns="http://www.w3.org/2000/svg">
    <g opacity="0.6" clip-path="url(#clip0_848_1463)">
        <path d="M3.08344 16.8784C2.57583 17.0318 2.20527 17.504 2.20527 18.0609V33.4001C2.20527 34.0811 2.7594 34.6351 3.44044 34.6351H5.4206C6.10179 34.6351 6.65578 34.0811 6.65578 33.4001V18.0609C6.65578 17.4336 6.1855 16.9139 5.57923 16.8359V14.5094L8.29811 12.3085V2.11919C8.29811 1.3146 7.6434 0.660059 6.8388 0.660059H5.97842V7.87947H5.33697V0.660059H3.32593V7.87947H2.68047V0.660059H1.82388C1.01928 0.660059 0.364563 1.3146 0.364563 2.11919V12.3118L3.08344 14.4466V16.8784ZM1.07853 11.9646V2.11919C1.07853 1.70835 1.41285 1.37402 1.82388 1.37402H1.96647V8.59343H4.03989V1.37402H4.62297V8.59343H6.69238V1.37402H6.8388C7.24983 1.37402 7.58415 1.70835 7.58415 2.11919V11.9679L4.86527 14.1687V17.5397H5.42064C5.7079 17.5397 5.94181 17.7735 5.94181 18.0609V33.4001C5.94181 33.6873 5.7079 33.9211 5.42064 33.9211H3.44044C3.15301 33.9211 2.91927 33.6874 2.91927 33.4001V18.0609C2.91927 17.7735 3.15301 17.5398 3.44044 17.5398H3.79744V14.0994L1.07853 11.9646ZM30.2149 0.364746C27.7773 0.364746 25.7944 3.42232 25.7944 7.18063C25.7944 10.2462 27.0864 12.8846 28.9651 13.723V16.823C28.409 16.9433 27.9914 17.4388 27.9914 18.0303V33.3694C27.9914 34.0505 28.5454 34.6044 29.2266 34.6044H31.2071C31.888 34.6044 32.4419 34.0505 32.4419 33.3694V18.0303C32.4419 17.4376 32.0225 16.941 31.4647 16.8221V13.723C33.3434 12.8846 34.6354 10.2462 34.6354 7.18063C34.6354 3.42232 32.6524 0.364746 30.2149 0.364746ZM30.9878 13.1455L30.7507 13.2301V17.5091H31.2071C31.4943 17.5091 31.7279 17.7428 31.7279 18.0302V33.3694C31.7279 33.6566 31.4943 33.8904 31.2071 33.8904H29.2265C28.9393 33.8904 28.7054 33.6567 28.7054 33.3694V18.0303C28.7054 17.7428 28.9393 17.5091 29.2265 17.5091H29.6791V13.2301L29.442 13.1455C27.7421 12.5398 26.5084 10.0313 26.5084 7.18063C26.5084 3.81607 28.1709 1.07871 30.2149 1.07871C32.2589 1.07871 33.9214 3.81607 33.9214 7.18063C33.9214 10.0313 32.6876 12.5398 30.9878 13.1455Z" fill="black"/>
        <path d="M27.3036 5.96748L28.0113 6.0637C28.1612 4.95875 28.5475 3.93675 29.07 3.25972L28.5053 2.82324C27.8994 3.60768 27.4727 4.72429 27.3036 5.96748ZM32.2732 9.07493C32.0776 9.87884 31.7492 10.6041 31.349 11.1171L31.9117 11.5564C32.3795 10.9568 32.7445 10.157 32.967 9.24366L32.2732 9.07493Z" fill="black"/>
        <path d="M17.1249 28.606C22.5508 28.606 26.9654 24.1916 26.9654 18.7655C26.9654 13.3394 22.5508 8.9248 17.1249 8.9248C11.6989 8.9248 7.28436 13.3394 7.28436 18.7655C7.28436 24.1916 11.6989 28.606 17.1249 28.606ZM17.1249 9.63877C22.1572 9.63877 26.2514 13.733 26.2514 18.7655C26.2514 23.7978 22.1572 27.892 17.1249 27.892C12.0925 27.892 7.99833 23.7978 7.99833 18.7655C7.99833 13.733 12.0925 9.63877 17.1249 9.63877Z" fill="black"/>
        <path d="M4.85552 22.5737H4.14166V30.7306H4.85552V22.5737Z" fill="black"/>
        <path d="M4.85552 19.8804H4.14166V21.1965H4.85552V19.8804Z" fill="black"/>
        <path d="M30.5718 29.0449H29.8579V30.7304H30.5718V29.0449Z" fill="black"/>
        <path d="M30.5718 19.8804H29.8579V27.3594H30.5718V19.8804Z" fill="black"/>
        <path d="M12.6605 23.3079H12.9858C13.5799 23.413 14.1659 23.4664 14.7293 23.4664C15.8197 23.4664 16.8325 23.2701 17.7372 22.8833C20.6782 21.6358 22.0918 18.5489 21.4263 14.8273L21.3824 14.5828L21.138 14.5388C20.5317 14.4301 19.9335 14.375 19.3596 14.375C15.5168 14.375 12.8345 16.7909 12.526 20.532C12.466 21.316 12.5099 22.1395 12.6574 22.9804L12.6605 23.3079ZM17.4576 22.2265C16.386 22.6847 15.1296 22.843 13.7737 22.6968L14.714 21.7564L18.0488 21.9288C17.8593 22.0369 17.6643 22.1388 17.4576 22.2265ZM20.8641 16.962L19.5757 16.8947L20.8193 15.651C20.8667 16.101 20.8836 16.5398 20.8641 16.962ZM19.3596 15.089C19.6697 15.089 19.9898 15.1129 20.3132 15.1475L19.0743 16.3864L19.0074 15.1029C19.1246 15.0977 19.2399 15.089 19.3596 15.089ZM20.7944 17.6732C20.7215 18.1908 20.5973 18.681 20.4215 19.1373L17.4849 18.9854L18.8962 17.5741L20.7944 17.6732ZM18.2955 15.1667L18.3946 17.0662L16.9826 18.4782L16.8289 15.5442C17.2843 15.3669 17.7743 15.2399 18.2955 15.1667ZM20.0972 19.8354C19.8021 20.3766 19.4256 20.8555 18.9736 21.2618L15.3938 21.0766L16.8052 19.6652L20.0972 19.8354ZM16.1308 15.8699L16.3033 19.1574L14.8915 20.5693L14.7044 16.9953C15.1086 16.5445 15.589 16.1684 16.1308 15.8699ZM13.2379 20.5885C13.3207 19.5833 13.5994 18.6877 14.0379 17.9232L14.2124 21.2485L13.2686 22.1923C13.2099 21.6425 13.1981 21.1048 13.2379 20.5885Z" fill="black"/>
    </g>
    <defs>
        <clipPath id="clip0_848_1463">
            <rect width="35" height="35" fill="white"/>
        </clipPath>
    </defs>
</svg>
