<svg width="35" height="35" viewBox="0 0 35 35" fill="none" xmlns="http://www.w3.org/2000/svg">
<g opacity="0.6">
<path d="M28.875 14H6.125V17.444C6.125 17.6761 6.03281 17.8986 5.86872 18.0627C5.70462 18.2268 5.48206 18.319 5.25 18.319C5.01794 18.319 4.79538 18.2268 4.63128 18.0627C4.46719 17.8986 4.375 17.6761 4.375 17.444V8.75C4.375 8.40528 4.4429 8.06394 4.57482 7.74546C4.70673 7.42698 4.90009 7.1376 5.14384 6.89384C5.3876 6.65009 5.67698 6.45673 5.99546 6.32482C6.31394 6.1929 6.65528 6.125 7 6.125H8.75V7.875H7C6.76794 7.875 6.54538 7.96719 6.38128 8.13128C6.21719 8.29538 6.125 8.51794 6.125 8.75V12.25H28.875V8.75C28.875 8.51794 28.7828 8.29538 28.6187 8.13128C28.4546 7.96719 28.2321 7.875 28 7.875H26.25V6.125H28C28.6962 6.125 29.3639 6.40156 29.8562 6.89384C30.3484 7.38613 30.625 8.05381 30.625 8.75V28C30.625 28.6962 30.3484 29.3639 29.8562 29.8562C29.3639 30.3484 28.6962 30.625 28 30.625H7C6.30381 30.625 5.63613 30.3484 5.14384 29.8562C4.65156 29.3639 4.375 28.6962 4.375 28V21.791C4.375 21.5589 4.46719 21.3364 4.63128 21.1723C4.79538 21.0082 5.01794 20.916 5.25 20.916C5.48206 20.916 5.70462 21.0082 5.86872 21.1723C6.03281 21.3364 6.125 21.5589 6.125 21.791V28C6.125 28.2321 6.21719 28.4546 6.38128 28.6187C6.54538 28.7828 6.76794 28.875 7 28.875H28C28.1149 28.875 28.2287 28.8524 28.3348 28.8084C28.441 28.7644 28.5375 28.7 28.6187 28.6187C28.7 28.5375 28.7644 28.441 28.8084 28.3348C28.8524 28.2287 28.875 28.1149 28.875 28V14ZM21 6.125V7.875H14V6.125H21ZM11.375 17.5H13.125C13.3571 17.5 13.5796 17.5922 13.7437 17.7563C13.9078 17.9204 14 18.1429 14 18.375C14 18.6071 13.9078 18.8296 13.7437 18.9937C13.5796 19.1578 13.3571 19.25 13.125 19.25H11.375C11.1429 19.25 10.9204 19.1578 10.7563 18.9937C10.5922 18.8296 10.5 18.6071 10.5 18.375C10.5 18.1429 10.5922 17.9204 10.7563 17.7563C10.9204 17.5922 11.1429 17.5 11.375 17.5ZM21.875 17.5H23.625C23.8571 17.5 24.0796 17.5922 24.2437 17.7563C24.4078 17.9204 24.5 18.1429 24.5 18.375C24.5 18.6071 24.4078 18.8296 24.2437 18.9937C24.0796 19.1578 23.8571 19.25 23.625 19.25H21.875C21.6429 19.25 21.4204 19.1578 21.2563 18.9937C21.0922 18.8296 21 18.6071 21 18.375C21 18.1429 21.0922 17.9204 21.2563 17.7563C21.4204 17.5922 21.6429 17.5 21.875 17.5ZM16.625 17.5H18.375C18.6071 17.5 18.8296 17.5922 18.9937 17.7563C19.1578 17.9204 19.25 18.1429 19.25 18.375C19.25 18.6071 19.1578 18.8296 18.9937 18.9937C18.8296 19.1578 18.6071 19.25 18.375 19.25H16.625C16.3929 19.25 16.1704 19.1578 16.0063 18.9937C15.8422 18.8296 15.75 18.6071 15.75 18.375C15.75 18.1429 15.8422 17.9204 16.0063 17.7563C16.1704 17.5922 16.3929 17.5 16.625 17.5ZM11.375 22.75H13.125C13.3571 22.75 13.5796 22.8422 13.7437 23.0063C13.9078 23.1704 14 23.3929 14 23.625C14 23.8571 13.9078 24.0796 13.7437 24.2437C13.5796 24.4078 13.3571 24.5 13.125 24.5H11.375C11.1429 24.5 10.9204 24.4078 10.7563 24.2437C10.5922 24.0796 10.5 23.8571 10.5 23.625C10.5 23.3929 10.5922 23.1704 10.7563 23.0063C10.9204 22.8422 11.1429 22.75 11.375 22.75ZM21.875 22.75H23.625C23.8571 22.75 24.0796 22.8422 24.2437 23.0063C24.4078 23.1704 24.5 23.3929 24.5 23.625C24.5 23.8571 24.4078 24.0796 24.2437 24.2437C24.0796 24.4078 23.8571 24.5 23.625 24.5H21.875C21.6429 24.5 21.4204 24.4078 21.2563 24.2437C21.0922 24.0796 21 23.8571 21 23.625C21 23.3929 21.0922 23.1704 21.2563 23.0063C21.4204 22.8422 21.6429 22.75 21.875 22.75ZM16.625 22.75H18.375C18.6071 22.75 18.8296 22.8422 18.9937 23.0063C19.1578 23.1704 19.25 23.3929 19.25 23.625C19.25 23.8571 19.1578 24.0796 18.9937 24.2437C18.8296 24.4078 18.6071 24.5 18.375 24.5H16.625C16.3929 24.5 16.1704 24.4078 16.0063 24.2437C15.8422 24.0796 15.75 23.8571 15.75 23.625C15.75 23.3929 15.8422 23.1704 16.0063 23.0063C16.1704 22.8422 16.3929 22.75 16.625 22.75ZM11.375 3.5C11.4899 3.5 11.6037 3.52263 11.7098 3.56661C11.816 3.61058 11.9125 3.67503 11.9937 3.75628C12.075 3.83753 12.1394 3.93399 12.1834 4.04015C12.2274 4.14631 12.25 4.26009 12.25 4.375V9.625C12.25 9.85706 12.1578 10.0796 11.9937 10.2437C11.8296 10.4078 11.6071 10.5 11.375 10.5C11.1429 10.5 10.9204 10.4078 10.7563 10.2437C10.5922 10.0796 10.5 9.85706 10.5 9.625V4.375C10.5 4.14294 10.5922 3.92038 10.7563 3.75628C10.9204 3.59219 11.1429 3.5 11.375 3.5ZM23.625 3.5C23.7399 3.5 23.8537 3.52263 23.9598 3.56661C24.066 3.61058 24.1625 3.67503 24.2437 3.75628C24.325 3.83753 24.3894 3.93399 24.4334 4.04015C24.4774 4.14631 24.5 4.26009 24.5 4.375V9.625C24.5 9.85706 24.4078 10.0796 24.2437 10.2437C24.0796 10.4078 23.8571 10.5 23.625 10.5C23.3929 10.5 23.1704 10.4078 23.0063 10.2437C22.8422 10.0796 22.75 9.85706 22.75 9.625V4.375C22.75 4.14294 22.8422 3.92038 23.0063 3.75628C23.1704 3.59219 23.3929 3.5 23.625 3.5Z" fill="black"/>
</g>
</svg>
