<svg width="35" height="35" viewBox="0 0 35 35" fill="none" xmlns="http://www.w3.org/2000/svg">
<g opacity="0.6">
<path d="M17.5227 20.2373C12.2788 20.2373 8.01245 15.9709 8.01245 10.7267C8.01245 5.4829 12.2788 1.2168 17.5227 1.2168C22.7667 1.2168 27.033 5.4829 27.033 10.7267C27.033 15.9709 22.7667 20.2373 17.5227 20.2373ZM17.5227 2.44727C12.9572 2.44727 9.24292 6.16137 9.24292 10.7267C9.24292 15.2924 12.9572 19.0068 17.5227 19.0068C22.0883 19.0068 25.8026 15.2924 25.8026 10.7267C25.8026 6.16137 22.0883 2.44727 17.5227 2.44727Z" fill="black"/>
<path d="M17.5227 33.8311C17.1829 33.8311 16.9075 33.5557 16.9075 33.2159V19.6221C16.9075 19.2823 17.1829 19.0068 17.5227 19.0068C17.8625 19.0068 18.1379 19.2823 18.1379 19.6221V33.2159C18.1379 33.5557 17.8625 33.8311 17.5227 33.8311Z" fill="black"/>
<path d="M24.1522 27.0322H10.8933C10.5535 27.0322 10.2781 26.7568 10.2781 26.417C10.2781 26.0772 10.5535 25.8018 10.8933 25.8018H24.1522C24.492 25.8018 24.7675 26.0772 24.7675 26.417C24.7675 26.7568 24.492 27.0322 24.1522 27.0322Z" fill="black"/>
</g>
</svg>
