<svg width="35" height="35" viewBox="0 0 35 35" fill="none" xmlns="http://www.w3.org/2000/svg">
<g opacity="0.6">
<path d="M25.1562 10.9375C26.9684 10.9375 28.4375 9.46843 28.4375 7.65625C28.4375 5.84407 26.9684 4.375 25.1562 4.375C23.3441 4.375 21.875 5.84407 21.875 7.65625C21.875 9.46843 23.3441 10.9375 25.1562 10.9375Z" stroke="black" stroke-miterlimit="10" stroke-linecap="round" stroke-linejoin="round"/>
<path d="M8.75 10.9375L11.8125 7.875C13.125 6.5625 15.3125 6.5625 16.625 7.875L25.2656 16.5156C26.4688 17.7187 28.3281 17.8281 29.75 16.7344L32.8125 14.2187" stroke="black" stroke-miterlimit="10" stroke-linecap="round" stroke-linejoin="round"/>
<path d="M18.5938 10.9375L13.4532 16.0781C11.8126 17.7187 12.3594 20.6719 14.5469 21.5469L18.8126 23.1875C20.0157 23.625 20.8907 24.8281 20.8907 26.1406V32.7031" stroke="black" stroke-miterlimit="10" stroke-linecap="round" stroke-linejoin="round"/>
<path d="M15.3125 21.875L12.4687 24.7187C11.5937 25.5937 10.1719 25.5937 9.40625 24.7187L5.46875 20.7812" stroke="black" stroke-miterlimit="10" stroke-linecap="round" stroke-linejoin="round"/>
<path d="M17.5 19.6875L22.9688 14.2188" stroke="black" stroke-miterlimit="10" stroke-linecap="round" stroke-linejoin="round"/>
</g>
</svg>
