<svg width="35" height="35" viewBox="0 0 35 35" fill="none" xmlns="http://www.w3.org/2000/svg">
<g opacity="0.6">
<path d="M22.2031 22.6404C23.4062 21.5467 24.1719 20.3435 24.5 19.2498L28.3281 17.0623C28.9844 17.3904 29.75 17.3904 30.4062 17.0623C31.3906 16.5154 31.8281 15.2029 31.1719 14.2185C30.9531 13.8904 30.7344 13.6717 30.4062 13.4529C30.4062 13.1248 30.2969 12.6873 30.1875 12.3592C29.6406 11.3748 28.3281 11.0467 27.3438 11.5935C26.6875 12.031 26.25 12.6873 26.25 13.4529L22.4219 15.6404C20.7812 15.2029 18.375 15.531 16.1875 16.8435C14.5469 17.8279 13.2344 19.031 12.5781 20.3435" stroke="black" stroke-width="2" stroke-miterlimit="10" stroke-linecap="round" stroke-linejoin="round"/>
<path d="M24.8281 19.0312C25.0469 19.6875 25.1563 20.4531 25.1563 21.1094C25.1563 26.1406 20.2344 27.3438 14.2188 27.3438C8.20313 27.3438 3.28125 26.1406 3.28125 21.1094C3.28125 16.0781 8.20313 12.0312 14.2188 12.0312C17.7188 12.0312 20.7812 13.3438 22.75 15.4219" stroke="black" stroke-width="2" stroke-miterlimit="10" stroke-linecap="round" stroke-linejoin="round"/>
<path d="M25.9219 13.5623C26.1406 13.0154 26.0312 12.4685 25.7031 11.9217C25.4844 11.5935 25.2656 11.3748 24.9375 11.156C24.9375 10.8279 24.8281 10.3904 24.7187 10.0623C24.1719 9.0779 22.8594 8.74978 21.875 9.29665C21.2187 9.73415 20.7812 10.3904 20.7812 11.156L18.2656 12.5779" stroke="black" stroke-width="2" stroke-miterlimit="10" stroke-linecap="round" stroke-linejoin="round"/>
</g>
</svg>
