<svg width="35" height="35" viewBox="0 0 35 35" fill="none" xmlns="http://www.w3.org/2000/svg">
<g opacity="0.6">
<path d="M28.4373 16.771H21.1457C20.9523 16.771 20.7668 16.8478 20.6301 16.9846C20.4933 17.1213 20.4165 17.3068 20.4165 17.5002V21.8752C20.4165 22.0685 20.4933 22.254 20.6301 22.3908C20.7668 22.5275 20.9523 22.6043 21.1457 22.6043H28.4373C28.6307 22.6043 28.8162 22.5275 28.9529 22.3908C29.0897 22.254 29.1665 22.0685 29.1665 21.8752V17.5002C29.1665 17.3068 29.0897 17.1213 28.9529 16.9846C28.8162 16.8478 28.6307 16.771 28.4373 16.771ZM27.7082 21.146H21.8748V18.2293H27.7082V21.146Z" fill="black"/>
<path d="M31.5575 10.0545L27.7083 5.56354V3.64583C27.7083 3.25906 27.5546 2.88813 27.2811 2.61464C27.0076 2.34115 26.6367 2.1875 26.2499 2.1875H14.5833C14.1965 2.1875 13.8256 2.34115 13.5521 2.61464C13.2786 2.88813 13.1249 3.25906 13.1249 3.64583V5.56354L9.2764 10.053C8.93602 10.4493 8.7492 10.9547 8.74994 11.4771V16.0417H5.10411C4.79941 16.0417 4.49809 16.1054 4.21945 16.2287C3.9408 16.352 3.69099 16.5321 3.48601 16.7575C3.28103 16.983 3.1254 17.2488 3.02911 17.5378C2.93281 17.8269 2.89797 18.1329 2.92682 18.4363L4.10734 30.8321C4.15693 31.3746 4.40799 31.8789 4.81103 32.2455C5.21406 32.6121 5.73982 32.8144 6.28463 32.8125H29.8958C30.4759 32.8125 31.0323 32.582 31.4426 32.1718C31.8528 31.7616 32.0833 31.2052 32.0833 30.625V11.4771C32.0842 10.9552 31.8976 10.4503 31.5575 10.0545ZM29.7689 10.2083H18.5645L15.4393 6.5625H26.6437L29.7689 10.2083ZM13.8541 6.95406L16.6439 10.2083H11.0643L13.8541 6.95406ZM26.2499 3.64583V5.10417H14.5833V3.64583H26.2499ZM4.56452 17.7384C4.63258 17.6629 4.71583 17.6026 4.80882 17.5615C4.90181 17.5204 5.00244 17.4995 5.10411 17.5H13.1249C13.2272 17.4995 13.3283 17.5205 13.4219 17.5616C13.5155 17.6027 13.5994 17.663 13.6681 17.7387C13.7369 17.8143 13.789 17.9035 13.821 18.0006C13.8531 18.0977 13.8643 18.2004 13.8541 18.3021L13.6354 20.5778C12.223 20.9094 10.7496 20.876 9.35369 20.4808C7.79851 20.0232 6.15527 19.9511 4.56598 20.2708L4.37859 18.3021C4.36781 18.2003 4.37882 18.0974 4.41088 18.0002C4.44294 17.9031 4.49531 17.8138 4.56452 17.7384ZM10.9374 31.3542H6.28463C6.10267 31.355 5.92697 31.2877 5.79205 31.1656C5.65714 31.0435 5.57275 30.8754 5.55546 30.6943L4.70525 21.7292C6.08517 21.4282 7.51802 21.4723 8.87682 21.8575C9.77944 22.1392 10.7212 22.2753 11.6666 22.2607C12.278 22.2608 12.8881 22.2057 13.4895 22.0959L12.6699 30.6979C12.6527 30.8791 12.5683 31.0472 12.4334 31.1693C12.2984 31.2914 12.1227 31.3586 11.9408 31.3578L10.9374 31.3542ZM13.9999 31.3542C14.0623 31.1859 14.1034 31.0105 14.1224 30.8321L15.303 18.4363C15.3318 18.1329 15.297 17.8268 15.2006 17.5377C15.1043 17.2485 14.9486 16.9827 14.7435 16.7573C14.5385 16.5318 14.2886 16.3517 14.0098 16.2285C13.7311 16.1053 13.4297 16.0416 13.1249 16.0417H10.2083V11.6667H17.4999V31.3542H13.9999ZM29.8958 31.3542H18.9583V11.6667H30.6249V30.625C30.6249 30.8184 30.5481 31.0039 30.4114 31.1406C30.2746 31.2773 30.0892 31.3542 29.8958 31.3542Z" fill="black"/>
</g>
</svg>
