<svg width="35" height="35" viewBox="0 0 35 35" fill="none" xmlns="http://www.w3.org/2000/svg">
<g opacity="0.6">
<path d="M20.1591 1.73145C15.7068 1.73145 11.6255 4.08127 9.39938 7.91519C7.17323 11.7491 7.04955 16.4488 9.2757 20.2827L8.53365 21.5194C7.91528 22.6325 7.04955 23.7456 6.06016 24.6113L1.97888 28.6926C1.11316 29.5583 1.11316 30.795 1.97888 31.6608L2.72093 32.4028C3.58666 33.2685 4.82341 33.2685 5.68913 32.4028L9.7704 28.3216C10.7598 27.3322 11.7492 26.5901 12.8623 25.8481L14.099 25.106C18.675 27.7032 24.364 27.0848 28.3216 23.6219C32.2792 20.159 33.7633 14.7173 31.9082 9.77031C30.0531 4.82332 25.3534 1.73145 20.1591 1.73145ZM12.3676 24.8587C11.1308 25.6007 10.0178 26.4664 9.02835 27.4558L4.94708 31.5371C4.57606 31.9081 3.83401 31.9081 3.46298 31.5371L2.72093 30.795C2.34991 30.424 2.34991 29.682 2.72093 29.311L6.80221 25.2297C7.7916 24.2403 8.65733 23.1272 9.39938 21.8905L9.89408 21.2721C10.7598 22.5088 11.8729 23.6219 13.1096 24.4876L12.3676 24.8587ZM20.1591 25.6007C13.8517 25.6007 8.65733 20.53 8.65733 14.0989C8.65733 7.66784 13.728 2.59717 20.1591 2.59717C26.5902 2.59717 31.6609 7.66784 31.6609 14.0989C31.6609 20.53 26.4665 25.6007 20.1591 25.6007Z" fill="black"/>
<path d="M20.1592 3.71045C14.4702 3.71045 9.77051 8.4101 9.77051 14.0991C9.77051 19.7882 14.4702 24.4878 20.1592 24.4878C25.8482 24.4878 30.5479 19.7882 30.5479 14.0991C30.5479 8.4101 25.9719 3.71045 20.1592 3.71045ZM20.1592 23.4984C14.9649 23.4984 10.7599 19.2935 10.7599 14.0991C10.7599 8.9048 14.9649 4.69985 20.1592 4.69985C25.3535 4.69985 29.5585 8.9048 29.5585 14.0991C29.5585 19.2935 25.3535 23.4984 20.1592 23.4984Z" fill="black"/>
<path d="M5.07069 28.5688L3.95762 29.6819C3.83394 29.8056 3.71027 30.0529 3.83394 30.1766C3.83394 30.3003 4.08129 30.5476 4.20497 30.5476C4.32864 30.5476 4.57599 30.5476 4.69967 30.424L5.81274 29.3109C6.06009 29.0635 6.06009 28.8162 5.81274 28.5688C5.56539 28.4452 5.19437 28.4452 5.07069 28.5688Z" fill="black"/>
<path d="M10.3887 23.2507L10.1414 23.4981C9.89404 23.6217 9.89404 23.8691 9.89404 23.9928C9.89404 24.1164 10.1414 24.3638 10.2651 24.3638C10.3887 24.3638 10.6361 24.3638 10.7598 24.2401L11.1308 23.9928C11.3781 23.7454 11.3781 23.4981 11.1308 23.2507C10.8834 23.0034 10.5124 23.127 10.3887 23.2507Z" fill="black"/>
<path d="M18.9222 9.52295C17.3144 9.52295 16.0776 10.7597 16.0776 12.3675C16.0776 13.9752 17.3144 15.212 18.9222 15.212C20.5299 15.212 21.7667 13.9752 21.7667 12.3675C21.7667 10.7597 20.5299 9.52295 18.9222 9.52295ZM18.9222 14.2226C17.9328 14.2226 17.067 13.3569 17.067 12.3675C17.067 11.3781 17.9328 10.5123 18.9222 10.5123C19.9116 10.5123 20.7773 11.3781 20.7773 12.3675C20.7773 13.3569 19.9116 14.2226 18.9222 14.2226Z" fill="black"/>
<path d="M25.23 13.8518C24.9826 14.0991 24.7353 14.3465 24.4879 14.7175C24.7353 14.2228 24.8589 13.6044 24.9826 12.986C24.9826 11.0072 23.8695 9.02843 22.1381 8.16271C20.9013 7.29698 19.6646 7.42066 18.5515 7.42066H18.4279C17.5621 7.42066 16.6964 7.54433 15.8307 7.91536C15.0886 8.41006 14.5939 9.02843 14.2229 9.77048C14.0992 10.0178 13.8519 10.2652 13.6045 10.5125C13.2335 10.8836 12.8625 11.3783 12.6151 11.9966C12.2441 13.1097 12.8625 13.9754 13.3572 14.5938L13.4809 14.8412C13.7282 15.2122 13.9756 15.7069 14.2229 16.0779C14.3466 16.2016 14.3466 16.3253 14.4703 16.4489C14.5939 16.6963 14.7176 17.0673 14.965 17.3147C15.8307 18.4277 17.0674 18.304 18.0568 18.1804C18.4279 18.1804 18.7989 18.0567 19.0462 18.0567C18.7989 18.1804 18.4279 18.304 18.1805 18.304C17.4385 18.4277 16.9438 19.0461 16.6964 19.6645C16.4491 20.4065 16.6964 21.1486 17.1911 21.6433C17.6858 22.138 18.4279 22.3853 19.1699 22.138C22.7565 21.1486 25.8483 19.1698 28.1982 16.3253C28.6929 15.8306 28.8165 15.0885 28.5692 14.3465C28.3218 13.6044 27.7035 13.1097 27.0851 12.986C26.343 12.986 25.601 13.2334 25.23 13.8518ZM19.912 17.0673C19.7883 17.0673 19.5409 16.9436 19.4173 16.9436C18.9226 16.9436 18.3042 16.9436 17.8095 17.0673C16.8201 17.191 16.078 17.3146 15.707 16.5726C15.5833 16.3253 15.4597 16.2016 15.336 15.9542C15.2123 15.8306 15.2123 15.5832 15.0886 15.4595C14.8413 15.0885 14.5939 14.5938 14.2229 14.0991L14.0992 13.8518C13.6045 13.2334 13.3572 12.7387 13.4809 12.244C13.6045 11.873 13.9756 11.5019 14.2229 11.1309C14.4703 10.8836 14.7176 10.6362 14.965 10.2652C15.2123 9.64681 15.707 9.15211 16.2017 8.78108C16.8201 8.53373 17.5621 8.28638 18.3042 8.41006H18.4279C19.5409 8.41006 20.654 8.41006 21.5197 8.78108C23.0038 9.52313 23.8695 11.0072 23.8695 12.7387C23.7459 13.4807 23.4985 14.0991 23.1275 14.8412L23.0038 15.2122C22.8801 15.5832 22.6328 15.9542 22.3854 16.3253C21.8907 16.6963 21.396 16.9436 20.7777 17.3147C20.5303 17.191 20.283 17.191 19.912 17.0673ZM27.3324 14.3465C27.4561 14.4701 27.4561 14.4701 27.5798 14.5938C27.8271 14.9648 27.8271 15.4595 27.4561 15.7069C25.23 18.304 22.2618 20.2828 18.9226 21.1486C18.4279 21.2722 17.9332 21.0249 17.8095 20.5302C17.6858 20.0355 17.9332 19.5408 18.4279 19.4171C19.4173 19.1698 20.283 18.7987 21.2724 18.304H21.396C22.0144 17.933 22.6328 17.6857 23.1275 17.191C23.1275 17.191 23.1275 17.191 23.2512 17.191C24.3642 16.4489 25.23 15.5832 26.0957 14.5938C26.343 14.0991 26.9614 14.0991 27.3324 14.3465Z" fill="black"/>
</g>
</svg>
