<svg width="35" height="35" viewBox="0 0 35 35" fill="none" xmlns="http://www.w3.org/2000/svg">
<g opacity="0.6">
<path d="M29.1321 14.2025C28.3611 14.1478 27.5462 14.2955 26.7204 14.6455L21.7876 16.7126L20.672 15.6408C18.2876 13.7103 16.2915 13.6447 14.2407 15.4111L10.6532 18.0251L9.97511 12.8681C9.93136 12.3705 10.2978 11.922 10.79 11.8673L13.415 11.5775C14.1423 11.4955 14.7821 11.0306 15.072 10.358L16.2642 7.67827C16.4884 7.16967 16.4775 6.58999 16.2314 6.09233C15.9853 5.59467 15.5368 5.23374 15.0064 5.10249L14.7001 5.02592C14.6673 4.83999 14.6181 4.65405 14.5361 4.47358C14.2298 3.80639 13.6228 3.2978 12.8626 3.07358L11.2548 2.5978C10.3361 2.32436 9.30793 2.46108 8.50949 2.95327L4.94386 5.15717C4.19464 5.62202 3.70246 6.35483 3.59308 7.16967L1.11027 25.5392C0.968082 26.5783 1.70636 27.5462 2.82199 27.7923L9.72355 29.3126C12.0204 29.8212 14.372 30.0728 16.7236 30.0728C19.3486 30.0728 21.9681 29.7611 24.5111 29.1322C28.9189 28.0439 32.3204 25.0744 33.6165 21.1806C34.1962 19.4415 33.879 17.5822 32.7415 16.0783C31.9157 14.9845 30.6032 14.3009 29.1321 14.197V14.2025ZM32.5775 20.8361C31.4017 24.3689 28.2845 27.0705 24.2486 28.0712C19.5892 29.2197 14.6509 29.2798 9.95871 28.2462L3.05714 26.7259C2.49933 26.6056 2.12746 26.1572 2.19308 25.6869L4.67589 7.31186C4.74152 6.82514 5.04777 6.37671 5.51808 6.08686L9.08371 3.88296C9.61965 3.54936 10.3196 3.46186 10.9431 3.6478L12.5509 4.12358C13.0048 4.25483 13.3657 4.55014 13.5353 4.92749C13.6775 5.24467 13.6775 5.58921 13.5353 5.90639C13.497 5.98842 13.3548 6.05952 13.2071 6.02671L9.94777 5.3103C9.65246 5.24467 9.36261 5.43061 9.29699 5.72592C9.23136 6.02124 9.4173 6.31108 9.71261 6.37671L12.972 7.09311C13.6228 7.2353 14.2736 6.92905 14.5361 6.3603C14.5689 6.28921 14.5853 6.21264 14.6126 6.13608L14.7384 6.16889C14.9626 6.22358 15.1486 6.37124 15.247 6.57905C15.3509 6.78686 15.3564 7.02749 15.2634 7.24077L14.0712 9.92045C13.9345 10.2376 13.6337 10.4564 13.2946 10.4947L10.6696 10.7845C9.58683 10.9048 8.78293 11.8837 8.88683 12.9939L9.64699 18.7634L9.4173 18.9275C9.17121 19.1025 9.12199 19.447 9.29699 19.6931C9.47746 19.9392 9.81652 19.9939 10.0626 19.8134L14.9189 16.2751C16.3134 15.0775 17.7079 14.6564 19.9446 16.4665L21.5306 17.9978V18.0142H21.5415L22.7392 19.1681C22.9579 19.3759 23.3025 19.3705 23.5103 19.1517C23.7181 18.933 23.7126 18.5884 23.4939 18.3806L22.6353 17.5548L27.1361 15.6681C27.8087 15.3892 28.454 15.2689 29.0501 15.3072C30.204 15.3892 31.2267 15.9197 31.8611 16.7564C32.7743 17.965 33.0368 19.458 32.572 20.8525L32.5775 20.8361Z" fill="black"/>
</g>
</svg>
