<svg width="35" height="35" viewBox="0 0 35 35" fill="none" xmlns="http://www.w3.org/2000/svg">
<g opacity="0.6">
<path d="M32.1973 21.1846C31.2607 20.1797 30.7446 18.874 30.7446 17.5C30.7446 16.126 31.2607 14.8203 32.1973 13.8154C32.7031 13.2754 32.833 12.5166 32.5391 11.833C32.2451 11.1563 31.606 10.7324 30.8677 10.729H30.8369C29.6304 10.729 28.4443 11.0503 27.4121 11.6587C26.4072 12.25 25.5698 13.0908 24.9819 14.0991C24.8862 14.2632 24.7324 14.3042 24.6504 14.3179C24.5068 14.3384 24.3633 14.2905 24.2642 14.188C22.9551 12.8823 21.4307 11.8569 19.7353 11.1426C17.9785 10.4009 16.1157 10.0249 14.1914 10.0249C13.1968 10.0249 12.2227 10.124 11.269 10.3223L11.2314 10.3325C10.0864 10.5752 8.97559 10.958 7.9126 11.481C6.93506 11.9629 6.00879 12.5576 5.16113 13.2515L5.1543 13.2583C5.08252 13.3164 5.01416 13.3745 4.94238 13.436C4.92871 13.4497 4.91162 13.4634 4.89795 13.4736L4.74414 13.6069C4.72363 13.624 4.70312 13.6445 4.68262 13.6616C4.62451 13.7129 4.56982 13.7642 4.51172 13.8154C4.48437 13.8394 4.45703 13.8667 4.42969 13.894C4.39551 13.9282 4.35791 13.9624 4.32373 13.9932C4.29639 14.0205 4.26904 14.0444 4.2417 14.0718L4.08789 14.2256C4.06055 14.2529 4.0332 14.2803 4.00586 14.311C3.97168 14.3486 3.93408 14.3828 3.8999 14.4204C3.87598 14.4478 3.85205 14.4717 3.82471 14.499L3.6709 14.6631C3.65039 14.687 3.62646 14.7109 3.60596 14.7349C3.56152 14.7861 3.51367 14.8374 3.46924 14.8887C3.45898 14.9023 3.44531 14.916 3.43506 14.9263C3.38037 14.9912 3.32227 15.0562 3.26758 15.1211C3.25391 15.1382 3.23682 15.1553 3.22314 15.1758C3.16504 15.2441 3.11035 15.3125 3.05566 15.3809C2.57373 15.9824 2.30713 16.7378 2.30713 17.5068C2.30713 18.2759 2.57373 19.0313 3.05566 19.6328C3.11035 19.7012 3.16846 19.7695 3.22314 19.8379C3.23682 19.855 3.25391 19.8721 3.26758 19.8926C3.32227 19.9575 3.37695 20.0225 3.43506 20.0874C3.44531 20.1011 3.45898 20.1113 3.46924 20.125C3.51367 20.1763 3.56152 20.2275 3.60596 20.2788C3.62646 20.3027 3.65039 20.3267 3.6709 20.3506C3.72217 20.4053 3.77344 20.4634 3.82812 20.5181C3.85205 20.542 3.87598 20.5693 3.8999 20.5933C3.93408 20.6309 3.97168 20.6685 4.00586 20.7026L4.08789 20.7847C4.13916 20.8359 4.19043 20.8872 4.24512 20.9385C4.27246 20.9658 4.2998 20.9897 4.32715 21.0171C4.36133 21.0513 4.39893 21.0855 4.43311 21.1196C4.46045 21.1436 4.48779 21.1709 4.51514 21.1948C4.57324 21.2461 4.62793 21.2974 4.68604 21.3486C4.70654 21.3657 4.72705 21.3862 4.74756 21.4033L4.90137 21.5366C4.91504 21.5503 4.93213 21.5605 4.9458 21.5742C5.01758 21.6357 5.08594 21.6938 5.15771 21.752C5.16113 21.752 5.16113 21.7554 5.16455 21.7554C6.01221 22.4492 6.93848 23.0474 7.91602 23.5293C8.98242 24.0522 10.0933 24.4351 11.2349 24.6777L11.2725 24.688C12.2227 24.8862 13.2002 24.9854 14.1948 24.9854C16.1157 24.9854 17.9819 24.6094 19.7388 23.8677C21.4341 23.1533 22.9585 22.1279 24.2676 20.8223C24.3701 20.7197 24.5103 20.6753 24.6538 20.6924C24.7358 20.7026 24.8896 20.7471 24.9853 20.9111C25.5698 21.916 26.4106 22.7603 27.4155 23.3516C28.4512 23.96 29.6338 24.2813 30.8403 24.2813H30.8711C31.606 24.2778 32.2485 23.854 32.5391 23.1772C32.833 22.4834 32.7031 21.7246 32.1973 21.1846ZM11.0127 23.2148C8.40478 22.5518 6.04297 21.0649 4.30322 18.9902C4.29297 18.9766 4.28271 18.9663 4.27246 18.9526C4.22119 18.8911 4.17334 18.833 4.12207 18.7715C4.12207 18.7715 4.12207 18.7681 4.11865 18.7681C3.72559 18.2759 3.58887 17.6606 3.71191 17.0796C3.72217 17.0249 3.73926 16.9702 3.75293 16.9155C3.7666 16.8608 3.78711 16.8062 3.80762 16.7549C3.88281 16.5703 3.98535 16.3926 4.11523 16.2285C4.1665 16.167 4.21777 16.1021 4.26904 16.0405C4.2793 16.0303 4.28955 16.0166 4.2998 16.0063C6.03955 13.9316 8.40478 12.4448 11.0093 11.7817C12.8789 13.0908 13.9863 15.2065 13.9863 17.4966C13.9897 19.7935 12.8823 21.9092 11.0127 23.2148ZM31.2847 22.6235C31.2471 22.709 31.1343 22.9038 30.8643 22.9038H30.8369C29.873 22.9038 28.9297 22.6475 28.1025 22.1621C27.2993 21.6904 26.6294 21.0171 26.1611 20.2139C25.8774 19.7251 25.3887 19.4038 24.8247 19.3286C24.2573 19.2534 23.7002 19.4414 23.2935 19.8447C20.8564 22.2715 17.623 23.6113 14.188 23.6113C13.7129 23.6113 13.2378 23.584 12.7729 23.5327C14.4102 21.9741 15.3535 19.8105 15.3535 17.4966C15.3535 15.1826 14.4102 13.019 12.7729 11.4604C13.2412 11.4092 13.7129 11.3818 14.188 11.3818C17.623 11.3818 20.8599 12.7183 23.2935 15.1484C23.6968 15.5518 24.2539 15.7397 24.8247 15.6646C25.3887 15.5894 25.8774 15.2681 26.1611 14.7793C26.6294 13.9761 27.2993 13.3027 28.1025 12.8311C28.9263 12.3457 29.873 12.0894 30.8369 12.0894H30.8608C31.1309 12.0894 31.2437 12.2842 31.2812 12.3696C31.3188 12.4551 31.3838 12.6738 31.1958 12.8755C30.0234 14.1333 29.3774 15.7739 29.3774 17.4932C29.3774 19.2124 30.0234 20.853 31.1958 22.1108C31.3872 22.3193 31.3223 22.5381 31.2847 22.6235Z" fill="black"/>
<path d="M8.30566 17.6162C8.30566 17.8882 8.4137 18.149 8.60599 18.3413C8.79829 18.5336 9.0591 18.6416 9.33105 18.6416C9.60301 18.6416 9.86382 18.5336 10.0561 18.3413C10.2484 18.149 10.3564 17.8882 10.3564 17.6162C10.3564 17.3443 10.2484 17.0834 10.0561 16.8912C9.86382 16.6989 9.60301 16.5908 9.33105 16.5908C9.0591 16.5908 8.79829 16.6989 8.60599 16.8912C8.4137 17.0834 8.30566 17.3443 8.30566 17.6162Z" fill="black"/>
</g>
</svg>
