<svg width="35" height="35" viewBox="0 0 35 35" fill="none" xmlns="http://www.w3.org/2000/svg">
<g opacity="0.6">
<path d="M30.2969 10.8281C27.4531 9.51562 23.4062 8.75 18.9219 8.75C10.2812 8.75 3.28125 11.7031 3.28125 15.3125C3.28125 17.7188 4.8125 20.2344 8.53125 21.3281C10.8281 21.9844 13.3437 21.875 15.5312 21.1094C17.9375 20.3437 20.0156 18.9219 21.9844 17.3906C23.5156 16.1875 25.4844 15.4219 27.5625 15.4219H28.9844C31.8281 15.3125 32.7031 11.9219 30.2969 10.8281Z" stroke="black" stroke-width="2" stroke-miterlimit="10" stroke-linecap="round" stroke-linejoin="round"/>
<path d="M12.5781 17.5C14.6923 17.5 16.4062 16.5206 16.4062 15.3125C16.4062 14.1044 14.6923 13.125 12.5781 13.125C10.4639 13.125 8.75 14.1044 8.75 15.3125C8.75 16.5206 10.4639 17.5 12.5781 17.5Z" stroke="black" stroke-width="2" stroke-miterlimit="10" stroke-linecap="round" stroke-linejoin="round"/>
<path d="M31.7188 13.125V18.5938C31.6094 19.6875 30.625 20.7812 29.0938 20.7812H27.6719C25.5937 20.7812 23.5156 21.5469 22.0938 22.75C20.125 24.3906 18.0469 25.7031 15.6406 26.4688C13.3438 27.2344 10.9375 27.3437 8.64063 26.6875C4.8125 25.7031 3.28125 23.1875 3.28125 20.7812V15.3125" stroke="black" stroke-width="2" stroke-miterlimit="10" stroke-linecap="round" stroke-linejoin="round"/>
</g>
</svg>
