<svg width="35" height="35" viewBox="0 0 35 35" fill="none" xmlns="http://www.w3.org/2000/svg">
<g opacity="0.6" clip-path="url(#clip0_863_1532)">
<path d="M26.0486 21.4252L29.0864 11.6817C29.1214 11.5748 29.1892 11.4818 29.2803 11.4158C29.3714 11.3498 29.481 11.3143 29.5934 11.3143C29.7059 11.3143 29.8155 11.3498 29.9066 11.4158C29.9977 11.4818 30.0655 11.5748 30.1005 11.6817L32.2688 18.7364H34.4759C34.6118 18.7437 34.7397 18.8029 34.8333 18.9016C34.9269 19.0003 34.9791 19.1312 34.9791 19.2672C34.9791 19.4032 34.9269 19.534 34.8333 19.6327C34.7397 19.7315 34.6118 19.7906 34.4759 19.7979H31.8706C31.7571 19.7977 31.6467 19.7612 31.5555 19.6938C31.4643 19.6264 31.397 19.5317 31.3635 19.4234L29.5841 13.6354L26.5728 23.3136C26.5397 23.4212 26.4732 23.5155 26.383 23.5827C26.2927 23.65 26.1833 23.6869 26.0707 23.6879C25.9581 23.6889 25.8481 23.6541 25.7566 23.5885C25.6651 23.5229 25.5969 23.4299 25.5618 23.323L23.3842 16.8216L22.1648 19.4917C22.1224 19.5844 22.0543 19.663 21.9686 19.7181C21.8828 19.7732 21.783 19.8026 21.681 19.8026H18.9015C18.7656 19.7952 18.6377 19.7361 18.5441 19.6374C18.4505 19.5387 18.3983 19.4078 18.3983 19.2718C18.3983 19.1358 18.4505 19.005 18.5441 18.9063C18.6377 18.8075 18.7656 18.7484 18.9015 18.741H21.3482L22.9876 15.157C23.0334 15.0619 23.1064 14.9826 23.1972 14.9288C23.2881 14.8751 23.3928 14.8495 23.4983 14.8551C23.6037 14.8608 23.7051 14.8975 23.7897 14.9606C23.8743 15.0237 23.9383 15.1104 23.9737 15.2098L26.0486 21.4252ZM12.5072 -1.2429e-05C12.9362 -0.0182305 13.3645 0.0490184 13.7672 0.197818C14.1699 0.346617 14.539 0.573994 14.8529 0.866705C15.1668 1.15942 15.4193 1.51161 15.5957 1.90279C15.7721 2.29396 15.8688 2.71629 15.8803 3.14518C15.8917 3.57407 15.8177 4.00095 15.6624 4.40097C15.5072 4.80098 15.2738 5.16613 14.976 5.47516C14.6781 5.78418 14.3217 6.0309 13.9275 6.20095C13.5333 6.37099 13.1092 6.46097 12.6798 6.46564C11.8303 6.47487 11.0112 6.14997 10.3992 5.56104C9.78729 4.97211 9.43162 4.16638 9.40895 3.31772C9.38629 2.46906 9.69846 1.64552 10.2781 1.02483C10.8577 0.404126 11.6583 0.036036 12.5072 -1.2429e-05ZM12.7996 5.40254C13.0853 5.38685 13.3651 5.31505 13.623 5.19124C13.8809 5.06744 14.1119 4.89406 14.3027 4.68101C14.4936 4.46795 14.6405 4.21941 14.7351 3.94959C14.8298 3.67976 14.8703 3.39395 14.8543 3.10847C14.8254 2.682 14.6721 2.27334 14.4133 1.933C14.1545 1.59267 13.8015 1.33559 13.3981 1.19354C12.9946 1.0515 12.5584 1.03071 12.1432 1.13377C11.7281 1.23682 11.3522 1.45919 11.0622 1.77338C10.7791 2.09539 10.5969 2.49338 10.5381 2.91796C10.4794 3.34254 10.5467 3.77501 10.7318 4.16169C10.9168 4.54837 11.2114 4.87224 11.579 5.09311C11.9466 5.31397 12.371 5.42055 12.7996 5.40254ZM21.7433 26.733L19.5423 33.4162C19.3423 33.9978 18.9192 34.4762 18.3661 34.7461C17.813 35.016 17.1753 35.0554 16.5933 34.8554C16.0112 34.6555 15.5324 34.2327 15.2623 33.6801C14.9922 33.1275 14.9529 32.4902 15.1529 31.9086L16.881 26.6646L13.5462 23.4038L10.1896 27.5101C9.94159 27.808 9.62396 28.0402 9.26479 28.1863C8.90562 28.3325 8.51596 28.3879 8.13024 28.3478L2.09055 27.6593C1.48323 27.5901 0.927768 27.2842 0.544805 26.8082C0.161841 26.3321 -0.0176923 25.7243 0.0451988 25.1167C0.10809 24.5092 0.408326 23.9509 0.880697 23.5633C1.35307 23.1756 1.95943 22.9898 2.56807 23.0463L7.39919 23.5965L9.78676 20.6714L9.35591 12.7059L8.06647 13.2592L6.13931 18.4349C6.04859 18.6973 5.90583 18.9387 5.71955 19.1447C5.53328 19.3507 5.30733 19.5171 5.05522 19.6338C4.80311 19.7505 4.53003 19.8152 4.25232 19.824C3.97461 19.8328 3.69798 19.7855 3.43898 19.685C3.17999 19.5844 2.94395 19.4327 2.745 19.2389C2.54605 19.0451 2.38827 18.8132 2.28111 18.557C2.17395 18.3009 2.11961 18.0257 2.12135 17.7481C2.12308 17.4705 2.18085 17.196 2.2912 16.9412C3.0483 14.6737 3.93532 12.4516 4.94786 10.286C6.31914 9.49454 7.75406 8.8187 9.2377 8.26545C10.3616 7.78439 11.5762 7.55159 12.7985 7.58298C14.0208 7.61436 15.2218 7.90919 16.3195 8.4473L19.3852 9.95025C19.5379 10.0249 19.7062 10.0619 19.8761 10.0584C20.046 10.0549 20.2126 10.0109 20.362 9.93005L24.095 7.90953C24.5642 7.6416 25.1182 7.56366 25.6432 7.69175C26.1681 7.81984 26.6238 8.14422 26.9166 8.59806C27.0615 8.8376 27.1564 9.10393 27.1957 9.38107C27.235 9.6582 27.2178 9.9404 27.1451 10.2107C27.0725 10.481 26.9459 10.7339 26.773 10.9541C26.6 11.1743 26.3844 11.3573 26.1389 11.4921L20.9158 14.3286C20.8525 14.3615 20.787 14.3901 20.7198 14.414C19.5003 15.0249 17.9589 13.7411 16.5886 13.1706L16.9743 20.2595L21.1537 24.3456C21.4431 24.6312 21.6528 24.9874 21.7619 25.3789C21.8711 25.7704 21.8759 26.1836 21.7759 26.5775C21.7689 26.6301 21.7579 26.682 21.7433 26.733ZM20.4103 25.1057L16.0846 20.8859C15.9905 20.7925 15.935 20.6671 15.9291 20.5346L15.4796 12.3314C15.4758 12.2394 15.4958 12.148 15.5378 12.0661C15.5797 11.9841 15.6421 11.9144 15.7189 11.8636C15.7957 11.8128 15.8843 11.7826 15.9762 11.7761C16.0681 11.7695 16.1601 11.7868 16.2433 11.8262C16.2962 11.8495 19.785 13.5825 19.7228 13.4955C19.9565 13.5432 20.1996 13.508 20.4103 13.396L25.6302 10.5564C25.7477 10.4908 25.8507 10.4022 25.9332 10.296C26.0158 10.1898 26.0761 10.0681 26.1107 9.93818C26.1453 9.80823 26.1534 9.67267 26.1345 9.53954C26.1157 9.4064 26.0703 9.27841 26.001 9.16314C25.9317 9.04788 25.8399 8.9477 25.7312 8.86855C25.6224 8.78939 25.4988 8.73287 25.3678 8.70235C25.2367 8.67182 25.1009 8.66791 24.9683 8.69085C24.8357 8.71378 24.709 8.76309 24.5959 8.83586L20.8629 10.8564C20.5641 11.0183 20.231 11.1066 19.8912 11.1139C19.5514 11.1212 19.2147 11.0473 18.9093 10.8983L15.8436 9.39383C14.8836 8.92254 13.833 8.6646 12.7638 8.63777C11.6946 8.61094 10.6323 8.81585 9.64988 9.23841L6.0662 10.7818C6.01145 10.8059 5.95932 10.8356 5.91066 10.8704C5.71893 10.9935 5.57259 11.1758 5.49381 11.3895L3.28667 17.3065C3.22072 17.4636 3.1953 17.6348 3.21275 17.8044C3.2302 17.9739 3.28997 18.1363 3.38656 18.2768C3.48316 18.4172 3.61349 18.5312 3.76561 18.6082C3.91774 18.6853 4.08678 18.7229 4.25725 18.7177C4.45246 18.7073 4.64036 18.6401 4.79786 18.5244C4.95537 18.4087 5.07562 18.2496 5.14384 18.0665L7.15499 12.6764C7.15499 12.3391 9.21281 11.6739 9.64366 11.433C9.72217 11.4001 9.80741 11.3864 9.89228 11.3932C9.97714 11.3999 10.0592 11.4269 10.1315 11.4717C10.2038 11.5166 10.2643 11.5781 10.308 11.6512C10.3517 11.7242 10.3772 11.8066 10.3825 11.8915L10.8584 20.8268C10.866 20.9593 10.8232 21.0898 10.7387 21.1921L8.03691 24.4886C7.98148 24.5572 7.90971 24.6108 7.82819 24.6444C7.74667 24.6781 7.65799 24.6908 7.57029 24.6814L2.44986 24.0908C2.28267 24.07 2.113 24.0829 1.9509 24.1288C1.7888 24.1747 1.63756 24.2526 1.50612 24.3579C1.37467 24.4632 1.26571 24.5938 1.18566 24.7419C1.10562 24.8901 1.05612 25.0527 1.0401 25.2203C1.02408 25.3879 1.04185 25.557 1.09238 25.7176C1.14291 25.8782 1.22516 26.0271 1.33427 26.1553C1.44337 26.2836 1.57712 26.3887 1.7276 26.4645C1.87807 26.5402 2.04222 26.585 2.21032 26.5962L8.25001 27.2847C8.46613 27.3046 8.68383 27.2709 8.8838 27.1866C9.08377 27.1023 9.25982 26.9699 9.39635 26.8014L13.092 22.277C13.1385 22.22 13.1964 22.1734 13.2621 22.1402C13.3277 22.107 13.3996 22.0879 13.4731 22.0842C13.547 22.0801 13.6209 22.0918 13.6898 22.1186C13.7588 22.1455 13.8212 22.1867 13.8728 22.2397L17.8594 26.1253C17.9305 26.1946 17.9806 26.2826 18.004 26.379C18.0273 26.4755 18.0231 26.5766 17.9916 26.6708L16.1609 32.2272C16.0487 32.5417 16.0661 32.8879 16.2093 33.1896C16.3525 33.4913 16.6098 33.7237 16.9246 33.8359C17.2393 33.948 17.5858 33.9306 17.8877 33.7875C18.1896 33.6443 18.4222 33.3872 18.5344 33.0727L20.7338 26.3988C20.7617 26.2909 20.7794 26.1806 20.7867 26.0693C20.7954 25.8903 20.7664 25.7115 20.7016 25.5444C20.6367 25.3773 20.5375 25.2257 20.4103 25.0995V25.1057ZM34.4837 33.9447H20.8302C20.6943 33.952 20.5664 34.0111 20.4728 34.1099C20.3792 34.2086 20.327 34.3394 20.327 34.4754C20.327 34.6114 20.3792 34.7423 20.4728 34.841C20.5664 34.9397 20.6943 34.9989 20.8302 35.0062H34.4837C34.6254 35.0062 34.7613 34.95 34.8615 34.8498C34.9617 34.7497 35.018 34.6139 35.018 34.4723C35.018 34.3307 34.9617 34.1949 34.8615 34.0948C34.7613 33.9947 34.6254 33.9384 34.4837 33.9384V33.9447ZM13.7531 33.9447H0.514917C0.379011 33.952 0.251095 34.0111 0.157492 34.1099C0.0638883 34.2086 0.0117188 34.3394 0.0117188 34.4754C0.0117188 34.6114 0.0638883 34.7423 0.157492 34.841C0.251095 34.9397 0.379011 34.9989 0.514917 35.0062H13.7531C13.8948 35.0062 14.0307 34.95 14.1309 34.8498C14.2311 34.7497 14.2874 34.6139 14.2874 34.4723C14.2874 34.3307 14.2311 34.1949 14.1309 34.0948C14.0307 33.9947 13.8948 33.9384 13.7531 33.9384V33.9447Z" fill="black"/>
</g>
<defs>
<clipPath id="clip0_863_1532">
<rect width="35" height="35" fill="white"/>
</clipPath>
</defs>
</svg>
