<svg width="106" height="106" viewBox="0 0 106 106" fill="none" xmlns="http://www.w3.org/2000/svg">
<g filter="url(#filter0_d_95_2447)">
<circle cx="51" cy="49" r="43" fill="#43C15F"/>
<path d="M50.9997 47.1525C49.9793 47.1525 49.152 47.9798 49.152 49.0001C49.152 50.0205 49.9793 50.8478 50.9997 50.8478C52.02 50.8478 52.8473 50.0205 52.8473 49.0001C52.8473 47.9798 52.02 47.1525 50.9997 47.1525ZM43.609 47.1525C42.5887 47.1525 41.7614 47.9798 41.7614 49.0001C41.7614 50.0205 42.5887 50.8478 43.609 50.8478C44.6294 50.8478 45.4567 50.0205 45.4567 49.0001C45.4567 47.9798 44.6294 47.1525 43.609 47.1525ZM58.3903 47.1525C57.3699 47.1525 56.5426 47.9798 56.5426 49.0001C56.5426 50.0205 57.3699 50.8478 58.3903 50.8478C59.4106 50.8478 60.2379 50.0205 60.2379 49.0001C60.2379 47.9798 59.4106 47.1525 58.3903 47.1525ZM69.2675 32.4705C60.1388 22.381 44.5595 21.602 34.47 30.7305C24.3805 39.8591 23.6015 55.4385 32.73 65.528L26.7251 71.5329C26.4942 71.7638 26.3644 72.077 26.3644 72.4036C26.3642 73.0839 26.9158 73.6354 27.596 73.6356H50.9997C57.1078 73.6354 62.9981 71.366 67.5275 67.268C77.6171 58.1393 78.396 42.56 69.2675 32.4705ZM50.9997 71.172H30.5694L35.321 66.4206C35.321 66.4207 35.3212 66.4204 35.321 66.4206C35.8019 65.9395 35.802 65.1595 35.321 64.6788C31.1641 60.5218 28.8284 54.884 28.8278 49.0051C28.8264 36.7612 38.7508 26.8346 50.9947 26.8332C63.2384 26.8319 73.1652 36.7563 73.1666 49.0001C73.1679 61.2439 63.2435 71.1707 50.9997 71.172Z" fill="white"/>
</g>
<defs>
<filter id="filter0_d_95_2447" x="0" y="0" width="106" height="106" filterUnits="userSpaceOnUse" color-interpolation-filters="sRGB">
<feFlood flood-opacity="0" result="BackgroundImageFix"/>
<feColorMatrix in="SourceAlpha" type="matrix" values="0 0 0 0 0 0 0 0 0 0 0 0 0 0 0 0 0 0 127 0" result="hardAlpha"/>
<feOffset dx="2" dy="4"/>
<feGaussianBlur stdDeviation="5"/>
<feColorMatrix type="matrix" values="0 0 0 0 0.52549 0 0 0 0 0.556863 0 0 0 0 0.588235 0 0 0 0.55 0"/>
<feBlend mode="normal" in2="BackgroundImageFix" result="effect1_dropShadow_95_2447"/>
<feBlend mode="normal" in="SourceGraphic" in2="effect1_dropShadow_95_2447" result="shape"/>
</filter>
</defs>
</svg>
