<svg width="35" height="35" viewBox="0 0 35 35" fill="none" xmlns="http://www.w3.org/2000/svg">
<g opacity="0.6" clip-path="url(#clip0_863_2166)">
<path fill-rule="evenodd" clip-rule="evenodd" d="M4.0263 30.8018L8.5348 29.655L7.49135 25.5501L3.61285 26.5394C3.47504 27.3367 3.42582 28.1636 3.59316 29.1234C3.70145 29.7288 3.84911 30.2899 4.0263 30.8018ZM24.8462 34.9855C24.3244 34.9855 23.7486 34.7344 22.9266 34.3013C21.1744 33.3711 19.6683 31.6041 18.6937 29.3252C17.7684 27.1743 17.3697 24.7429 17.5764 22.4837C17.9111 18.8464 19.7372 16.2427 22.5968 15.3419C24.2801 14.8104 24.7822 14.963 26.1062 16.1934C28.1783 18.113 29.3251 21.1548 29.33 24.7576C29.3399 27.9668 28.4392 31.2202 26.7903 33.5384C26.3178 34.2078 25.7518 34.9855 24.8462 34.9855ZM22.8774 16.2328C20.3967 17.0154 18.802 19.3238 18.5067 22.5674C18.3147 24.674 18.6839 26.943 19.5501 28.961C20.441 31.043 21.7995 32.6475 23.3646 33.4744C23.7682 33.691 24.1128 33.8633 24.3983 33.9617C21.7453 31.3285 20.318 26.6477 21.0316 22.5625C21.5337 19.693 23.0103 17.6208 25.2251 16.6512C24.29 15.8145 24.0193 15.8686 22.8774 16.2328ZM26.0668 32.9527C27.2481 31.2792 27.9667 29.1136 28.2571 26.9381C28.7099 23.4976 28.07 19.7323 25.9831 17.3944C25.9733 17.3846 25.9585 17.3747 25.9487 17.3599C20.0079 19.5355 20.9529 29.8273 25.486 33.6959C25.6238 33.5483 25.8748 33.2332 26.0668 32.9527ZM23.9257 12.1378C20.6231 12.1378 17.729 11.0648 15.9866 9.18951C15.2188 8.36262 14.8201 7.83105 14.7808 7.21581C14.7266 6.47259 15.2877 5.7786 15.7602 5.21257C17.099 3.60802 18.9595 2.36276 20.82 1.51126C24.5607 -0.196654 29.2267 -0.728224 32.6573 1.43251C34.1043 2.34307 34.4636 2.77621 34.3849 4.60225C34.1683 9.54881 28.9609 12.1378 23.9257 12.1378ZM15.9374 7.68339C16.0998 7.92457 16.3509 8.21004 16.6708 8.55458C21.0464 13.26 33.1495 11.5668 33.4546 4.55795C33.5137 3.24379 33.4054 3.0223 32.4407 2.39722C31.4514 8.93357 21.3959 10.8827 15.9374 7.68339ZM15.9079 6.56119C20.8348 9.9721 31.0134 8.16574 31.5646 1.88533C30.3489 1.26024 28.9215 0.950161 27.3317 0.950161C23.655 0.950161 18.0243 3.12566 15.9079 6.56119ZM3.82942 25.5255L7.26002 24.6494L6.21164 20.5445L4.33146 21.0268C4.55787 22.5821 4.24286 23.8471 3.94262 25.0726C3.90325 25.2252 3.86387 25.3729 3.82942 25.5255ZM0.610461 12.3543C0.703978 10.3659 1.84095 7.88519 2.86472 5.8475C3.7802 4.02638 3.54887 2.23479 4.17395 1.26024C6.19688 -1.87996 11.6652 1.48665 12.7726 5.05015C13.3583 6.93526 13.0925 8.92865 12.8415 10.8433C12.5856 12.7579 12.2706 14.9039 13.1122 16.7152C14.6183 18.5461 15.0022 21.0219 14.83 23.3352C14.6577 25.6633 13.9342 28.1636 12.7775 30.3933C11.6996 32.4703 9.8342 34.9855 7.38799 34.9855C6.26086 34.9855 5.21741 34.4342 4.37083 33.3907C3.55871 32.3867 2.973 30.9691 2.67768 29.2858C1.7179 23.8077 4.35607 23.409 2.89425 18.9251C2.2101 16.8333 0.5071 14.5692 0.610461 12.3543ZM4.15919 20.1113L5.98523 19.6437L4.93686 15.5437L2.7269 16.1049C3.22402 17.0942 3.77035 18.3148 4.15919 20.1113ZM2.29377 15.2534L4.70553 14.6381L3.66207 10.5381L1.7622 11.0205C1.27492 12.9794 1.66868 13.9983 2.29377 15.2534ZM2.07228 9.98194L3.43074 9.63249L2.95823 7.7966C2.57924 8.62841 2.28885 9.34701 2.07228 9.98194ZM3.58824 6.48244L4.33146 9.40608L6.84657 8.7613L5.80312 4.66131L4.17395 5.07476C4.02137 5.56695 3.82942 5.99516 3.58824 6.48244ZM4.4299 4.04607L5.57179 3.75567L5.0353 1.654C4.74982 2.03791 4.69076 2.5055 4.57755 3.20442C4.53326 3.4702 4.48896 3.75075 4.4299 4.04607ZM5.8425 1.05352L6.47251 3.52434L10.036 2.6187C8.88426 1.57033 7.11236 0.610547 5.8425 1.05352ZM10.7743 3.39145L6.70384 4.42998L7.75221 8.52997L12.1918 7.39792C12.1623 5.82289 11.8227 4.64163 10.7743 3.39145ZM12.1721 8.36754L7.97862 9.43561L9.027 13.5356L11.675 12.8613C11.7882 11.3601 12.0835 9.86874 12.1721 8.36754ZM11.6356 13.8309L9.25833 14.4412L10.3018 18.5412L12.8218 17.9014C12.684 17.6799 12.5265 17.4682 12.3592 17.2664C12.3345 17.2369 12.3149 17.2024 12.2952 17.168C11.7882 16.1049 11.6307 14.9777 11.6356 13.8309ZM13.2697 18.7479L10.5331 19.4419L11.5815 23.5468L13.9243 22.9464C13.9982 21.4402 13.8111 19.9883 13.2697 18.7479ZM13.8407 23.9308L11.8128 24.4476L12.7578 28.1686C13.2845 26.8199 13.6684 25.368 13.8407 23.9308ZM12.0786 29.7091L9.67177 30.3244L10.228 32.5196C10.8727 31.8157 11.5421 30.7969 12.0786 29.7091ZM9.45521 33.2431L8.76614 30.5557L4.3856 31.673C5.54718 34.0601 7.49627 34.7787 9.45521 33.2431ZM9.44044 29.4237L11.9556 28.7838L10.9072 24.6789L8.39207 25.3187L9.44044 29.4237ZM8.16074 24.418L10.6759 23.7782L9.6324 19.6733L7.11728 20.318L8.16074 24.418ZM6.88595 19.4124L9.40107 18.7726L8.35269 14.6676L5.83757 15.3124L6.88595 19.4124ZM5.61116 14.4068L8.12628 13.7669L7.07791 9.66694L4.56279 10.3068L5.61116 14.4068Z" fill="black"/>
</g>
<defs>
<clipPath id="clip0_863_2166">
<rect width="35" height="35" fill="white"/>
</clipPath>
</defs>
</svg>
