<svg width="35" height="35" viewBox="0 0 35 35" fill="none" xmlns="http://www.w3.org/2000/svg">
<g opacity="0.6">
<path fill-rule="evenodd" clip-rule="evenodd" d="M16.0441 9.56707C13.5879 9.56707 11.5676 7.5467 11.5676 5.07075C11.5676 2.61461 13.5879 0.594238 16.0441 0.594238C18.52 0.594238 20.5404 2.61461 20.5404 5.07075C20.5404 7.5467 18.52 9.56707 16.0441 9.56707ZM25.1159 34.4058C24.0265 34.4058 23.155 33.7323 22.8579 32.6429L20.7583 25.8093H20.0254V32.2468C20.0254 33.3758 19.1142 34.2869 17.9852 34.2869C16.876 34.2869 15.9648 33.3758 15.9648 32.2468V28.2852H11.4883V32.2468C11.4883 33.3758 10.5772 34.2869 9.44814 34.2869C8.31911 34.2869 7.40796 33.3758 7.40796 32.2468V15.7272C7.40796 14.5982 8.31911 13.6871 9.44814 13.6871C10.5772 13.6871 11.4883 14.5982 11.4883 15.7272V24.2247H12.2014C12.0825 23.9276 11.9439 23.472 11.9439 23.1551V14.4001C11.9439 12.1421 13.786 10.3 16.0441 10.3C18.3219 10.3 20.164 12.1421 20.164 14.4001V20.283H22.4221C23.2144 20.3028 23.9473 20.7187 24.4029 21.3922H24.3831C25.0961 22.5212 27.4532 31.296 27.4928 31.3752C27.9286 33.0391 26.6609 34.4058 25.1159 34.4058ZM13.5285 23.0758C13.5879 23.7493 14.0831 24.2247 14.6972 24.2247H21.3525C21.6892 24.2247 22.0061 24.4426 22.1052 24.7793L24.3831 32.1873C24.5613 32.7618 24.9575 32.94 25.4527 32.7419C25.6706 32.6825 26.1261 32.425 25.9479 31.7912C25.4527 29.9095 23.4719 22.8778 23.056 22.2439C22.8579 21.927 22.541 21.8676 22.1844 21.8676H19.3717C18.9162 21.8676 18.5794 21.511 18.5794 21.0753V14.4001C18.5794 13.0136 17.4504 11.8846 16.0441 11.8846C14.6575 11.8846 13.5285 13.0136 13.5285 14.4001V23.0758ZM9.44814 15.2717C9.21045 15.2717 8.99257 15.4697 8.99257 15.7272V32.2468C8.99257 32.841 9.90371 32.841 9.90371 32.2468V15.7272C9.90371 15.4697 9.68583 15.2717 9.44814 15.2717ZM11.4883 26.7006H16.7571C17.1929 26.7006 17.5494 27.0572 17.5494 27.4929V32.2468C17.5494 32.841 18.4408 32.841 18.4408 32.2468V25.8093H11.4883V26.7006ZM16.0441 2.17885C14.4595 2.17885 13.1522 3.48615 13.1522 5.07075C13.1522 6.67517 14.4595 7.98247 16.0441 7.98247C17.6485 7.98247 18.9558 6.67517 18.9558 5.07075C18.9558 3.48615 17.6485 2.17885 16.0441 2.17885Z" fill="black"/>
</g>
</svg>
