<svg width="35" height="35" viewBox="0 0 35 35" fill="none" xmlns="http://www.w3.org/2000/svg">
<g opacity="0.6">
<path d="M18.9424 20.5931C17.8203 21.2698 16.68 21.9119 15.6276 22.7176C15.7576 22.3457 15.9273 21.5118 15.9299 21.4868C16.0209 20.6198 16.7852 20.0551 17.1969 19.3415C17.5634 18.6922 17.8339 17.8126 17.6054 17.079C17.5875 16.9734 17.474 16.8774 17.3637 16.9228C14.9179 18.2718 16.186 21.6429 14.6394 23.5596C12.7275 25.2738 11.5228 28.627 13.3921 30.7952C13.5792 31.0018 13.8815 30.7112 13.7495 30.4903C11.9096 27.6572 13.9633 24.4323 16.4025 22.7763C19.2294 21.0068 22.9577 24.3713 25.5119 21.8719C25.6487 21.7163 25.552 21.5219 25.3786 21.4609C24.1264 21.0212 22.7715 20.9881 21.4716 21.2129C20.5421 21.3739 19.6483 21.679 18.7252 21.7685C18.4767 21.7582 17.932 21.7841 17.9066 21.7825C19.4482 20.8556 20.7881 20.0885 22.1906 19.0392C24.9298 17.8081 28.5599 18.9778 30.7487 16.5168C30.7725 16.4894 30.7887 16.4564 30.796 16.4209C30.8032 16.3855 30.8011 16.3487 30.79 16.3143C30.7788 16.2798 30.7589 16.2488 30.7323 16.2243C30.7056 16.1998 30.673 16.1827 30.6378 16.1745C29.5885 15.8682 28.4767 16.0659 27.5277 16.5805C26.6424 17.0746 25.8098 17.8048 24.7825 17.9441C24.262 17.9878 23.7457 18.0717 23.2381 18.1951C24.8689 16.7799 26.2007 15.0534 27.1556 13.1168C27.5748 12.2685 28.2336 10.397 29.2513 9.06288C30.1216 7.92188 30.1353 6.81833 31.028 5.81992C31.2036 5.62392 30.9052 5.39992 30.7041 5.44157C29.2669 5.73802 28.0296 6.77213 27.4252 8.10353C27.1133 8.78414 26.9745 9.53133 27.0212 10.2786C27.1682 12.8136 25.7178 14.7246 24.9006 15.751C25.5658 14.0787 25.8483 12.2787 25.7273 10.483C25.6972 10.0761 25.6789 9.62799 25.5187 9.2481C25.4576 9.1032 25.1984 9.06785 25.1601 9.24285C24.5844 9.89896 24.1396 10.7741 24.1381 11.6597C25.1941 15.2198 24.7121 17.0329 20.2924 19.7576C20.6056 19.2431 20.5899 18.646 20.7778 18.0829C20.9778 17.4835 21.3544 16.9571 21.5658 16.3581C21.9277 15.3332 22.1532 13.9618 21.7604 12.9126C21.7497 12.8818 21.7314 12.8542 21.7072 12.8324C21.683 12.8105 21.6536 12.7952 21.6219 12.7877C21.5902 12.7803 21.5571 12.781 21.5257 12.7898C21.4943 12.7986 21.4656 12.8151 21.4423 12.838C20.2054 13.8396 19.8573 15.4075 20.0332 16.9282C20.2599 18.3574 20.0858 19.6116 18.9424 20.5931Z" fill="black"/>
<path d="M4.95263 11.3345C1.86185 12.5101 -0.0716215 16.4581 2.01081 19.3432C2.27681 19.7228 2.57781 20.1655 3.05584 19.8388C4.08085 19.1122 5.09445 18.3651 6.24385 17.8455C7.2088 19.7883 7.76005 21.9532 7.41922 24.131C7.38674 24.3567 7.28391 24.5977 7.4342 24.7985C7.59695 25.016 7.89298 25.1815 8.13315 25.2965C9.11315 25.7574 10.9022 25.9353 11.5647 24.8835C11.6977 24.6128 11.5997 24.2484 11.5722 23.9639C11.3197 21.49 10.4372 18.7821 8.88761 16.8149C9.86201 16.5183 10.8606 16.3079 11.8718 16.1863C12.2983 16.1356 12.7982 16.0985 12.9335 15.6071C13.0567 15.1601 12.836 14.6065 12.6544 14.2048C11.357 11.4094 7.7604 10.1306 4.95263 11.3345ZM8.91295 17.775C10.0894 19.6683 10.8134 21.8074 11.0287 24.026C11.0554 24.3126 11.155 24.597 10.8986 24.7956C10.1734 25.3297 8.90091 25.1266 8.16549 24.6929C8.11152 24.6595 7.93491 24.5765 7.90558 24.5127C8.2086 22.6816 8.02514 20.8031 7.37358 19.0652C7.88668 18.6362 8.35834 18.1541 8.91295 17.775ZM9.24076 11.7909C10.365 12.2204 11.3648 13.021 11.9773 14.064C12.1789 14.4079 12.4481 14.9025 12.4256 15.3134C12.4073 15.648 12.1394 15.6193 11.872 15.6512C8.63482 16.0413 5.55754 17.2773 2.94986 19.2347C2.80321 19.243 2.65743 19.2073 2.53119 19.1322C1.33958 17.5772 1.45949 15.3154 2.64354 13.7934C3.52512 13.9804 4.39354 13.0219 4.43302 12.192C4.98775 11.8649 5.59502 11.6366 6.22782 11.5171C5.5456 12.4251 5.97582 13.6063 7.04864 13.8742C8.21428 14.178 9.50942 12.9549 9.24076 11.7909Z" fill="black"/>
<path d="M3.10398 15.427C2.52214 15.7006 2.17564 16.4133 2.40195 17.029C2.60971 17.5945 3.31195 17.9158 3.84864 17.575C4.78076 17.044 4.36839 14.8735 3.10398 15.427Z" fill="black"/>
<path d="M4.84498 13.6997C4.77929 13.6779 4.70854 13.6763 4.64198 13.6954C4.1846 13.6907 4.03214 14.396 4.50478 14.5148C4.95026 14.6547 5.32546 13.8724 4.84498 13.6997Z" fill="black"/>
<path d="M11.1225 13.7849C10.3897 13.0248 8.79993 14.2907 9.64406 15.1359C10.4291 15.8799 11.9113 14.6416 11.1225 13.7849Z" fill="black"/>
<path d="M5.92917 15.384C5.90562 15.4856 5.90796 15.5915 5.936 15.692C5.96403 15.7925 6.01685 15.8844 6.08961 15.9591C6.16237 16.0339 6.25274 16.0892 6.35243 16.12C6.45213 16.1507 6.55794 16.1559 6.66018 16.1352C7.32238 16.2002 7.90107 15.2692 7.45335 14.7539C6.9749 14.2009 5.88381 14.6557 5.92917 15.384Z" fill="black"/>
<path d="M9.39702 28.0077C9.37602 27.6464 8.96749 27.4505 8.64942 27.3553C7.80178 27.0992 6.75942 27.3254 5.95848 27.6658C5.27731 27.9706 3.04752 29.3344 3.7492 30.2208C4.16052 30.881 5.59427 30.8238 6.27831 30.7162C6.67031 31.5443 6.01497 31.8624 6.32304 32.2507C6.49804 32.4616 6.82004 32.4182 7.06427 32.4041C7.37878 32.382 7.8393 32.3971 8.10264 32.2054C8.14373 32.1933 8.1804 32.1695 8.2082 32.1369C8.23599 32.1043 8.2537 32.0643 8.25917 32.0218C8.3858 31.3371 8.22564 30.7715 7.87333 30.2134C8.77297 29.8606 9.95947 29.0798 9.39702 28.0077ZM8.48282 29.2274C8.44016 29.1151 8.37466 29.0128 8.29045 28.9271C8.14465 28.7774 7.92989 28.9994 8.06352 29.1541C8.12549 29.2318 8.15638 29.3297 8.15018 29.4289C7.97322 29.5324 7.79199 29.6281 7.60649 29.7159C7.46307 29.6127 7.34642 29.4767 7.26629 29.3192C7.18852 29.1587 6.9046 29.2742 6.97439 29.4422C7.03566 29.601 7.12293 29.7484 7.23262 29.8785C6.98623 29.976 6.7331 30.0555 6.47522 30.1165C6.40105 30.0592 6.33903 29.9877 6.29276 29.9062C6.24649 29.8247 6.2169 29.7349 6.20572 29.6418C6.17912 29.4592 5.86167 29.5002 5.88078 29.6858C5.89878 29.8667 5.95691 30.0412 6.05095 30.1968C5.8324 30.2285 5.61175 30.2436 5.39092 30.2417C5.27388 30.1227 5.20583 29.9857 5.26072 29.8027C5.3226 29.5965 5.01683 29.5206 4.94326 29.7152C4.8866 29.8765 4.88454 30.052 4.93738 30.2146C4.33363 30.1477 4.00946 30.033 4.45284 29.3947C5.20605 28.6662 5.60218 28.3775 6.47774 28.0429C7.15436 27.7924 8.96421 27.433 8.96512 28.6425C8.94132 28.9145 8.70864 29.0864 8.48282 29.2274Z" fill="black"/>
<path d="M33.372 26.8527C33.2701 27.6104 32.9731 28.3286 32.5103 28.9371C32.2793 28.805 32.0214 28.7271 31.756 28.7092C31.4906 28.6914 31.2246 28.734 30.9781 28.8339C29.7016 29.1499 28.5667 30.1899 27.1705 29.9691C26.9455 29.936 26.6905 29.8739 26.5537 29.6755C26.3743 29.4153 26.5276 29.2477 26.7752 29.1613C26.8109 29.1488 28.6511 28.3347 29.2728 27.6003C29.521 27.7053 29.7287 27.9196 29.9844 27.996C30.0234 28.0052 30.0642 28.003 30.102 27.9896C30.1398 27.9761 30.1728 27.952 30.1973 27.9202C30.2217 27.8884 30.2364 27.8503 30.2396 27.8103C30.2428 27.7703 30.2344 27.7303 30.2154 27.695C30.0808 27.4602 29.7747 27.3526 29.5339 27.2617C29.6878 27.0395 29.8194 26.8027 29.9268 26.5547C30.1779 26.6509 30.3826 26.8266 30.6111 26.9599C30.6463 26.9789 30.6867 26.9861 30.7264 26.9803C30.766 26.9745 30.8027 26.9561 30.831 26.9278C30.8594 26.8995 30.8778 26.8628 30.8835 26.8232C30.8893 26.7835 30.8821 26.7431 30.8631 26.7079C30.7296 26.4382 30.3766 26.2669 30.0727 26.2179C30.3037 25.7122 30.5175 24.9383 31.183 24.9C31.7745 24.8871 32.169 25.5475 32.1956 26.0695C32.2328 26.7988 31.7891 27.3591 31.593 28.0239C31.53 28.2371 31.8339 28.4403 31.986 28.2527C32.7175 27.3521 33.1507 25.735 32.2197 24.8251C32.5118 24.1981 32.6131 23.2333 32.3775 22.5977C32.3653 22.5591 32.3398 22.526 32.3056 22.5043C32.2714 22.4826 32.2306 22.4737 32.1904 22.4791C32.1502 22.4845 32.1133 22.504 32.086 22.534C32.0588 22.564 32.043 22.6027 32.0415 22.6432C32.0232 22.998 32.0658 23.3438 32.0142 23.6997C31.9644 23.9739 31.8908 24.2432 31.7942 24.5047C31.6191 24.4071 31.4228 24.3536 31.2224 24.3488C31.0219 24.3439 30.8233 24.3878 30.6436 24.4767C29.9044 24.8407 29.723 25.7339 29.3949 26.4115C29.1244 26.9674 28.7311 27.4547 28.2449 27.8366C27.0954 27.5058 26.5499 26.5184 25.8608 25.631C25.1978 24.8087 24.3499 23.931 23.3452 23.542C22.2839 23.1187 21.2761 23.6437 20.3573 24.1634C19.3938 24.704 16.704 26.895 16.273 27.3533C15.9308 27.7173 15.1007 28.3278 15.496 28.7463C15.8971 29.171 16.9834 29.1387 17.5202 29.1577C18.6636 29.1981 19.8073 29.201 20.9514 29.1663C21.5061 29.1494 22.1231 29.1867 22.6641 29.0573C22.999 28.97 22.8246 28.5266 22.5292 28.5547C21.7284 28.5057 20.8685 28.6202 20.1593 28.1596C19.4684 27.7203 19.2735 26.8962 19.6804 26.1908C19.9884 25.6574 20.4821 25.1623 20.9259 24.7388C21.1532 24.5135 21.4083 24.3183 21.685 24.1578C22.2763 23.8204 22.9536 23.921 23.5265 24.2613C24.4315 24.7842 25.1715 25.6326 25.7844 26.4649C26.242 27.0863 26.8403 27.9357 27.6184 28.2413C26.4061 28.8928 25.0628 28.7494 23.8335 28.2358C23.6745 28.1788 23.3892 28.3108 23.5029 28.6348C23.8071 29.5382 26.0289 30.6088 26.9437 30.7849C25.8342 30.9582 24.7045 30.8759 23.6078 30.6603C22.9649 30.5343 22.3399 30.3098 21.6963 30.1983C21.4658 30.1584 21.267 30.3178 21.5089 30.7793C21.7575 31.2531 22.3162 31.62 22.7422 31.9254C24.1567 32.9181 25.811 33.5141 27.5336 33.6516C29.0806 33.7751 30.7488 33.5251 32.0113 32.5666C32.3273 32.3226 32.7638 31.9576 32.9139 31.5537C33.49 30.9549 33.5151 29.8916 32.9452 29.287C33.4545 28.5928 33.769 27.7751 33.8562 26.9185C33.8883 26.6453 33.4109 26.578 33.372 26.8527ZM32.034 31.4298C30.641 33.2128 28.02 32.9745 26.0163 32.6775C25.2509 32.5375 24.4811 32.2925 23.8428 31.8366C23.6438 31.6744 23.2812 31.2272 23.8082 31.2471C25.5236 31.559 27.368 31.5061 28.9642 30.7476C29.1873 30.9747 29.4127 31.2278 29.6594 31.4093C29.7902 31.4905 29.9919 31.3533 29.9338 31.1984C29.8233 30.9174 29.5978 30.7355 29.3749 30.5346C29.5341 30.4448 29.6896 30.3482 29.8414 30.2449C29.9628 30.3043 30.079 30.3734 30.1891 30.4517C30.3661 30.6027 30.4849 30.8105 30.656 30.9611C30.7722 31.0634 31.0212 31.0066 30.9999 30.8185C30.9439 30.4109 30.6198 30.1344 30.2859 29.9167C30.7514 29.5562 31.3091 29.1527 31.9205 29.3136C32.635 29.7895 32.5061 30.8216 32.034 31.4298Z" fill="black"/>
<path d="M23.0125 25.1518C23.0862 24.7451 22.4833 24.6252 22.3959 25.0291C22.3221 25.4358 22.9248 25.5556 23.0125 25.1518Z" fill="black"/>
<path d="M21.9647 26.2171C21.891 26.6238 22.4939 26.7436 22.5814 26.3397C22.6551 25.9331 22.0522 25.8133 21.9647 26.2171Z" fill="black"/>
<path d="M24.0848 26.5033C24.1585 26.0967 23.5556 25.9768 23.4682 26.3807C23.3941 26.7873 23.9973 26.9072 24.0848 26.5033Z" fill="black"/>
<path d="M11.4874 9.82248C11.4601 10.2063 11.5722 10.6839 11.8536 10.9751C11.942 11.7462 12.6942 12.3968 13.3955 12.6368C14.386 13.5167 15.6047 13.6566 16.6855 14.2707C16.951 14.4148 17.1929 14.5987 17.4026 14.8161C17.7838 15.3439 18.2174 15.8427 18.7057 16.2248C18.7376 16.2525 18.7761 16.2717 18.8174 16.2805C18.8587 16.2893 18.9016 16.2874 18.9421 16.2751C18.9825 16.2628 19.0192 16.2405 19.0486 16.2102C19.0781 16.1799 19.0994 16.1426 19.1105 16.1018C19.157 16.0201 19.1105 15.9182 19.0254 15.8577C17.9306 14.6397 16.5979 13.1984 16.7238 11.4627C16.9281 10.5268 17.5113 9.65189 18.2229 9.01531C18.469 8.82988 18.7844 8.76954 19.0579 8.63577C19.538 8.40106 20.0848 7.68377 19.5807 7.19188C19.3308 6.94793 18.8188 6.94191 18.4951 6.87688C18.3815 6.85048 18.2664 6.8308 18.1505 6.81794C18.1806 6.35174 18.5258 5.72321 19.0722 5.89394C19.4055 6.01791 19.4283 6.34404 19.4156 6.64994C19.4036 6.93792 19.8055 6.96144 19.8936 6.71462C20.2896 5.07004 17.6459 4.68154 17.6752 7.00414C17.4927 7.25516 17.5588 7.70603 17.5485 7.99023C17.5388 8.257 17.5741 8.60889 17.5078 8.90163C16.9306 9.64797 16.3685 10.4337 16.1988 11.3801C15.6259 9.7347 15.1183 6.53514 16.9944 5.45161C18.6027 4.77485 18.1449 4.51718 17.4957 4.13673C18.0033 3.12026 17.3616 1.82799 16.3151 1.46833C15.5706 1.19533 14.5341 1.27933 13.9549 1.87181C13.503 2.33416 13.1734 3.19194 13.3117 3.87514C12.7927 4.03705 12.3515 4.41799 12.2197 4.95685C12.2078 5.00301 12.2082 5.05148 12.2207 5.09746C12.2333 5.14344 12.2576 5.18535 12.2913 5.21906C12.325 5.25276 12.367 5.2771 12.4129 5.28966C12.4589 5.30222 12.5074 5.30257 12.5535 5.29068C13.9297 4.90456 14.7893 6.16806 15.0811 7.35652C15.0129 9.5485 15.5519 11.7167 16.6387 13.6215C15.6151 13.1143 14.3864 12.9215 13.5679 12.0699C13.4618 11.827 13.4141 11.5627 13.4287 11.2981C14.9327 8.46763 11.8482 7.34399 11.4874 9.82248ZM13.2699 10.0535C12.932 10.0333 12.3851 10.1025 12.0693 10.3292C11.9074 9.85195 12.13 8.94699 12.7711 9.00845C13.226 9.08237 13.3348 9.67401 13.2699 10.0535ZM14.8493 4.33301C14.4993 4.12553 14.191 3.76867 13.7471 3.80304C13.807 1.05204 17.1255 1.37068 17.1959 3.31563C17.1711 4.12182 16.2104 4.30753 16.2104 4.30753C16.2104 4.30753 16.5464 3.80507 16.0757 3.64253C15.4689 3.43239 15.0187 3.81571 14.8493 4.33301Z" fill="black"/>
</g>
</svg>
