<svg width="27" height="35" viewBox="0 0 27 35" fill="none" xmlns="http://www.w3.org/2000/svg">
<path fill-rule="evenodd" clip-rule="evenodd" d="M14.1152 7.72461C11.9961 7.72461 10.2871 6.01562 10.2871 3.89648C10.2871 1.70898 11.9961 0 14.1152 0C16.2344 0 17.9434 1.70898 17.9434 3.89648C17.9434 6.01562 16.2344 7.72461 14.1152 7.72461ZM14.1152 0.957031C12.543 0.957031 11.2441 2.25586 11.2441 3.89648C11.2441 5.46875 12.543 6.76758 14.1152 6.76758C15.7559 6.76758 17.0547 5.46875 17.0547 3.89648C17.0547 2.25586 15.7559 0.957031 14.1152 0.957031Z" fill="black"/>
<path fill-rule="evenodd" clip-rule="evenodd" d="M16.2343 35C14.9354 35 13.8417 33.9062 13.8417 32.5391C13.8417 32.4023 13.8417 32.1289 13.8417 31.7188C13.8417 30.4199 13.9101 26.7285 13.7733 26.0449L9.19326 21.875C7.96279 20.9863 8.37295 18.3887 8.44131 18.1152C8.64638 17.0215 8.91982 15.5176 9.1249 14.4922C8.98818 14.5605 8.91982 14.6973 8.91982 14.7656L7.48427 19.209C7.21084 20.166 6.32216 20.7812 5.36513 20.7812C5.0917 20.7812 4.88662 20.7129 4.68154 20.6445C3.51943 20.3027 2.83584 19.0039 3.24599 17.8418L5.02334 12.168C5.22841 11.5527 7.07412 10.3906 8.03115 9.84375C9.1249 9.16016 11.244 8.13477 12.953 8.13477C14.4569 8.13477 15.414 8.88672 15.6874 10.2539C15.8241 10.8691 15.414 14.1504 15.2089 15.5176C15.0722 16.6797 14.8671 17.8418 14.7304 18.6621C14.5936 19.4141 14.5253 19.8242 14.4569 20.0977L17.8065 23.1055C17.8749 23.1738 18.7636 23.9941 18.6952 25.1562V32.5391C18.6952 33.9062 17.6015 35 16.2343 35ZM9.80849 12.7148C9.94521 12.7148 10.0819 12.7832 10.1503 12.9199C10.287 13.0566 10.287 13.2617 10.2186 13.5352C10.2186 13.6719 10.2186 13.877 10.1503 14.082C10.0819 14.4922 9.94521 15.1074 9.87685 15.791C9.60341 17.0215 9.39834 18.252 9.39834 18.252C9.26162 19.0039 9.1249 20.7129 9.74013 21.123C9.80849 21.123 9.80849 21.123 9.80849 21.123L14.5253 25.4297C14.7304 25.6348 14.9354 26.0449 14.7987 31.7188C14.7987 32.1289 14.7987 32.4023 14.7987 32.5391C14.7987 32.9492 14.9354 33.291 15.2089 33.5645C15.4823 33.9062 15.8925 34.043 16.2343 34.043C17.0546 34.043 17.7382 33.3594 17.7382 32.5391V25.1562C17.7382 25.0879 17.7382 25.0879 17.7382 25.0879C17.8065 24.4043 17.1229 23.8574 17.1229 23.7891L13.5683 20.5762C13.4315 20.3711 13.3632 20.166 13.4999 19.9609C13.6366 19.6191 13.9784 17.8418 14.3202 15.2441C14.662 12.5098 14.7987 10.7324 14.7987 10.459C14.5253 9.50195 13.9784 9.0918 12.953 9.0918C10.3554 9.0918 6.32216 11.9629 5.98037 12.5098L4.13466 18.1152C3.92959 18.7988 4.27138 19.5508 4.95498 19.7559C5.0917 19.8242 5.22841 19.8242 5.36513 19.8242C5.91201 19.8242 6.39052 19.4141 6.5956 18.9355L8.03115 14.4922C8.23623 13.7402 9.4667 12.8516 9.60341 12.7832C9.67177 12.7832 9.74013 12.7148 9.80849 12.7148Z" fill="black"/>
<path fill-rule="evenodd" clip-rule="evenodd" d="M6.18549 34.9316C5.91205 34.9316 5.70697 34.9316 5.43354 34.7949C4.8183 34.5898 4.33979 34.1113 4.06635 33.4961C3.79291 32.9492 3.79291 32.1972 3.99799 31.582L7.41596 22.0117C7.41596 21.875 7.55268 21.7382 7.75775 21.7382C7.89447 21.6699 8.03119 21.7382 8.16791 21.875L10.3554 24.1308L11.1757 25.0195C11.3124 25.1562 11.3808 25.2929 11.3124 25.498L8.57807 33.2226C8.37299 33.8379 7.89447 34.3847 7.3476 34.6582C6.93744 34.8632 6.59565 34.9316 6.18549 34.9316ZM8.03119 23.1054L4.88666 31.9238C4.74994 32.3339 4.74994 32.7441 4.95502 33.1543C5.09174 33.4961 5.36518 33.7695 5.77533 33.9062C6.11713 34.0429 6.52729 34.0429 6.86908 33.8379C7.27924 33.6328 7.55268 33.291 7.6894 32.8808L10.2871 25.4296L9.67182 24.8144L8.03119 23.1054Z" fill="black"/>
<path fill-rule="evenodd" clip-rule="evenodd" d="M21.8398 20.8496C21.498 20.8496 21.1562 20.7812 20.9512 20.5762L16.0293 17.0215C15.8242 16.8847 15.7559 16.6797 15.8242 16.5429L16.4395 12.8515C16.4395 12.7148 16.5762 12.5781 16.7129 12.5097C16.8496 12.4414 17.0547 12.4414 17.1914 12.5781L23.207 17.1582C23.959 17.7734 24.0957 18.9355 23.4805 19.8926C23.0703 20.5078 22.4551 20.8496 21.8398 20.8496ZM16.7812 16.4062L21.498 19.8242C21.5664 19.8926 21.7031 19.8926 21.8398 19.8926C22.1133 19.8926 22.4551 19.6875 22.6602 19.3457C23.002 18.8672 23.002 18.1836 22.6602 17.9101L17.2598 13.8086L16.7812 16.4062Z" fill="black"/>
<path fill-rule="evenodd" clip-rule="evenodd" d="M25.9414 35H1.05859C0.853516 35 0.580078 34.7949 0.580078 34.5215C0.580078 34.248 0.853516 34.043 1.05859 34.043H25.9414C26.1465 34.043 26.4199 34.248 26.4199 34.5215C26.4199 34.7949 26.1465 35 25.9414 35Z" fill="black"/>
</svg>
