<svg width="35" height="35" viewBox="0 0 35 35" fill="none" xmlns="http://www.w3.org/2000/svg">
<g opacity="0.6" clip-path="url(#clip0_925_3205)">
<path d="M16.9042 7.10918H16.6266C16.5083 6.95936 16.4291 6.78242 16.3962 6.59434C16.3633 6.40625 16.3777 6.21294 16.4382 6.03184C16.7721 5.58385 16.9527 5.04017 16.9531 4.48145V2.62754C16.9498 1.92833 16.6693 1.25899 16.173 0.766366C15.6768 0.273741 15.0055 -0.00193825 14.3063 -0.00019242H14.1312C13.432 -0.00193825 12.7607 0.273741 12.2645 0.766366C11.7682 1.25899 11.4877 1.92833 11.4844 2.62754V4.48145C11.4847 5.04013 11.6652 5.58382 11.999 6.03184C12.0595 6.21292 12.074 6.40622 12.0412 6.5943C12.0083 6.78239 11.9292 6.95933 11.8109 7.10918H11.5333C9.84785 7.10918 8.47656 8.5625 8.47656 10.3491V21.1218C8.47852 21.468 8.61771 21.7992 8.86361 22.0429C9.10952 22.2866 9.44204 22.4228 9.78824 22.4217H9.84375V33.0857C9.84375 33.5934 10.0454 34.0802 10.4044 34.4392C10.7633 34.7981 11.2502 34.9998 11.7578 34.9998C12.2655 34.9998 12.7523 34.7981 13.1113 34.4392C13.4702 34.0802 13.6719 33.5934 13.6719 33.0857V22.4217H14.7656V33.0857C14.7656 33.5934 14.9673 34.0802 15.3262 34.4392C15.6852 34.7981 16.172 34.9998 16.6797 34.9998C17.1873 34.9998 17.6742 34.7981 18.0331 34.4392C18.3921 34.0802 18.5938 33.5934 18.5938 33.0857V22.4217H18.6493C18.9955 22.4228 19.328 22.2866 19.5739 22.0429C19.8198 21.7992 19.959 21.468 19.9609 21.1218V10.3494C19.9609 8.5625 18.5896 7.10918 16.9042 7.10918ZM13.0933 6.89809C13.4215 7.03764 13.7746 7.10944 14.1312 7.10918H14.3063C14.6629 7.10944 15.016 7.03764 15.3442 6.89809C15.3686 7.0215 15.4043 7.14241 15.4509 7.2593C15.4218 7.28593 15.3958 7.31564 15.3732 7.34789L14.2188 9.04074L13.0643 7.34789C13.0416 7.31563 13.0155 7.28593 12.9864 7.2593C13.0329 7.1425 13.0686 7.02168 13.093 6.89836L13.0933 6.89809ZM12.5781 2.62754C12.5812 2.21832 12.7464 1.82701 13.0375 1.53944C13.3287 1.25187 13.722 1.09152 14.1312 1.09356H14.3063C14.7155 1.09152 15.1088 1.25187 15.4 1.53944C15.6911 1.82701 15.8563 2.21832 15.8594 2.62754V4.48145C15.8563 4.89067 15.6911 5.28198 15.4 5.56955C15.1088 5.85712 14.7155 6.01747 14.3063 6.01543H14.1312C13.722 6.01747 13.3287 5.85712 13.0375 5.56955C12.7464 5.28198 12.5812 4.89067 12.5781 4.48145V2.62754ZM12.5781 33.0857C12.5781 33.3033 12.4917 33.512 12.3379 33.6658C12.184 33.8196 11.9754 33.9061 11.7578 33.9061C11.5403 33.9061 11.3316 33.8196 11.1778 33.6658C11.0239 33.512 10.9375 33.3033 10.9375 33.0857V22.4217H12.5781V33.0857ZM17.5 33.0857C17.5 33.3033 17.4136 33.512 17.2597 33.6658C17.1059 33.8196 16.8972 33.9061 16.6797 33.9061C16.4621 33.9061 16.2535 33.8196 16.0996 33.6658C15.9458 33.512 15.8594 33.3033 15.8594 33.0857V22.4217H17.5V33.0857ZM18.8672 21.1218C18.8655 21.178 18.8417 21.2312 18.8008 21.2699C18.76 21.3085 18.7055 21.3294 18.6493 21.3279H17.2266V19.6873C17.2266 19.5423 17.1689 19.4032 17.0664 19.3006C16.9638 19.198 16.8247 19.1404 16.6797 19.1404C16.5346 19.1404 16.3955 19.198 16.293 19.3006C16.1904 19.4032 16.1328 19.5423 16.1328 19.6873V21.3279H12.3047V19.6873C12.3047 19.5423 12.2471 19.4032 12.1445 19.3006C12.042 19.198 11.9029 19.1404 11.7578 19.1404C11.6128 19.1404 11.4737 19.198 11.3711 19.3006C11.2686 19.4032 11.2109 19.5423 11.2109 19.6873V21.3279H9.78824C9.73203 21.3294 9.67752 21.3085 9.63667 21.2699C9.59582 21.2312 9.57196 21.178 9.57031 21.1218V10.3494C9.57031 9.16543 10.4508 8.20293 11.5333 8.20293H12.3236L13.5685 10.0287C13.6369 10.1246 13.7236 10.2061 13.8235 10.2685C13.9235 10.3309 14.0347 10.373 14.1509 10.3923C14.2913 10.3955 14.4303 10.364 14.5555 10.3005C14.6808 10.2371 14.7885 10.1437 14.869 10.0287L16.1137 8.20293H16.9039C17.9867 8.20293 18.8672 9.16543 18.8672 10.3491V21.1218ZM23.7891 6.83575H24.8828C25.0279 6.83575 25.167 6.77813 25.2695 6.67557C25.3721 6.57301 25.4297 6.43391 25.4297 6.28887C25.4297 6.14383 25.3721 6.00473 25.2695 5.90217C25.167 5.79961 25.0279 5.742 24.8828 5.742H23.7891C23.644 5.742 23.5049 5.79961 23.4024 5.90217C23.2998 6.00473 23.2422 6.14383 23.2422 6.28887C23.2422 6.43391 23.2998 6.57301 23.4024 6.67557C23.5049 6.77813 23.644 6.83575 23.7891 6.83575ZM23.7891 11.4842H24.8828C25.0279 11.4842 25.167 11.4266 25.2695 11.324C25.3721 11.2214 25.4297 11.0823 25.4297 10.9373C25.4297 10.7923 25.3721 10.6532 25.2695 10.5506C25.167 10.448 25.0279 10.3904 24.8828 10.3904H23.7891C23.644 10.3904 23.5049 10.448 23.4024 10.5506C23.2998 10.6532 23.2422 10.7923 23.2422 10.9373C23.2422 11.0823 23.2998 11.2214 23.4024 11.324C23.5049 11.4266 23.644 11.4842 23.7891 11.4842ZM23.7891 13.6717H24.8828C25.0279 13.6717 25.167 13.6141 25.2695 13.5115C25.3721 13.4089 25.4297 13.2698 25.4297 13.1248C25.4297 12.9798 25.3721 12.8407 25.2695 12.7381C25.167 12.6355 25.0279 12.5779 24.8828 12.5779H23.7891C23.644 12.5779 23.5049 12.6355 23.4024 12.7381C23.2998 12.8407 23.2422 12.9798 23.2422 13.1248C23.2422 13.2698 23.2998 13.4089 23.4024 13.5115C23.5049 13.6141 23.644 13.6717 23.7891 13.6717ZM23.7891 18.3201H24.8828C25.0279 18.3201 25.167 18.2625 25.2695 18.1599C25.3721 18.0574 25.4297 17.9183 25.4297 17.7732C25.4297 17.6282 25.3721 17.4891 25.2695 17.3865C25.167 17.284 25.0279 17.2264 24.8828 17.2264H23.7891C23.644 17.2264 23.5049 17.284 23.4024 17.3865C23.2998 17.4891 23.2422 17.6282 23.2422 17.7732C23.2422 17.9183 23.2998 18.0574 23.4024 18.1599C23.5049 18.2625 23.644 18.3201 23.7891 18.3201ZM23.7891 20.7811H24.8828C25.0279 20.7811 25.167 20.7234 25.2695 20.6209C25.3721 20.5183 25.4297 20.3792 25.4297 20.2342C25.4297 20.0891 25.3721 19.95 25.2695 19.8475C25.167 19.7449 25.0279 19.6873 24.8828 19.6873H23.7891C23.644 19.6873 23.5049 19.7449 23.4024 19.8475C23.2998 19.95 23.2422 20.0891 23.2422 20.2342C23.2422 20.3792 23.2998 20.5183 23.4024 20.6209C23.5049 20.7234 23.644 20.7811 23.7891 20.7811ZM23.7891 25.4295H24.8828C25.0279 25.4295 25.167 25.3719 25.2695 25.2693C25.3721 25.1668 25.4297 25.0277 25.4297 24.8826C25.4297 24.7376 25.3721 24.5985 25.2695 24.4959C25.167 24.3934 25.0279 24.3357 24.8828 24.3357H23.7891C23.644 24.3357 23.5049 24.3934 23.4024 24.4959C23.2998 24.5985 23.2422 24.7376 23.2422 24.8826C23.2422 25.0277 23.2998 25.1668 23.4024 25.2693C23.5049 25.3719 23.644 25.4295 23.7891 25.4295ZM23.7891 27.617H24.8828C25.0279 27.617 25.167 27.5594 25.2695 27.4568C25.3721 27.3543 25.4297 27.2152 25.4297 27.0701C25.4297 26.9251 25.3721 26.786 25.2695 26.6834C25.167 26.5809 25.0279 26.5232 24.8828 26.5232H23.7891C23.644 26.5232 23.5049 26.5809 23.4024 26.6834C23.2998 26.786 23.2422 26.9251 23.2422 27.0701C23.2422 27.2152 23.2998 27.3543 23.4024 27.4568C23.5049 27.5594 23.644 27.617 23.7891 27.617ZM23.7891 9.02324H25.9766C26.1216 9.02324 26.2607 8.96563 26.3633 8.86307C26.4658 8.76051 26.5234 8.62141 26.5234 8.47637C26.5234 8.33133 26.4658 8.19223 26.3633 8.08967C26.2607 7.98711 26.1216 7.9295 25.9766 7.9295H23.7891C23.644 7.9295 23.5049 7.98711 23.4024 8.08967C23.2998 8.19223 23.2422 8.33133 23.2422 8.47637C23.2422 8.62141 23.2998 8.76051 23.4024 8.86307C23.5049 8.96563 23.644 9.02324 23.7891 9.02324ZM25.9766 15.0389H23.7891C23.644 15.0389 23.5049 15.0965 23.4024 15.199C23.2998 15.3016 23.2422 15.4407 23.2422 15.5857C23.2422 15.7308 23.2998 15.8699 23.4024 15.9724C23.5049 16.075 23.644 16.1326 23.7891 16.1326H25.9766C26.1216 16.1326 26.2607 16.075 26.3633 15.9724C26.4658 15.8699 26.5234 15.7308 26.5234 15.5857C26.5234 15.4407 26.4658 15.3016 26.3633 15.199C26.2607 15.0965 26.1216 15.0389 25.9766 15.0389ZM25.9766 21.8748H23.7891C23.644 21.8748 23.5049 21.9324 23.4024 22.035C23.2998 22.1375 23.2422 22.2766 23.2422 22.4217C23.2422 22.5667 23.2998 22.7058 23.4024 22.8084C23.5049 22.9109 23.644 22.9686 23.7891 22.9686H25.9766C26.1216 22.9686 26.2607 22.9109 26.3633 22.8084C26.4658 22.7058 26.5234 22.5667 26.5234 22.4217C26.5234 22.2766 26.4658 22.1375 26.3633 22.035C26.2607 21.9324 26.1216 21.8748 25.9766 21.8748ZM25.9766 28.9842H23.7891C23.644 28.9842 23.5049 29.0418 23.4024 29.1444C23.2998 29.2469 23.2422 29.386 23.2422 29.5311C23.2422 29.6761 23.2998 29.8152 23.4024 29.9178C23.5049 30.0203 23.644 30.0779 23.7891 30.0779H25.9766C26.1216 30.0779 26.2607 30.0203 26.3633 29.9178C26.4658 29.8152 26.5234 29.6761 26.5234 29.5311C26.5234 29.386 26.4658 29.2469 26.3633 29.1444C26.2607 29.0418 26.1216 28.9842 25.9766 28.9842ZM24.8828 31.1717H23.7891C23.644 31.1717 23.5049 31.2293 23.4024 31.3319C23.2998 31.4344 23.2422 31.5735 23.2422 31.7186C23.2422 31.8636 23.2998 32.0027 23.4024 32.1053C23.5049 32.2078 23.644 32.2654 23.7891 32.2654H24.8828C25.0279 32.2654 25.167 32.2078 25.2695 32.1053C25.3721 32.0027 25.4297 31.8636 25.4297 31.7186C25.4297 31.5735 25.3721 31.4344 25.2695 31.3319C25.167 31.2293 25.0279 31.1717 24.8828 31.1717ZM22.091 0.301956C22.0457 0.210952 21.9758 0.134395 21.8894 0.0808832C21.8029 0.0273712 21.7032 -0.000976562 21.6016 -0.000976562C21.4999 -0.000976563 21.4002 0.0273712 21.3138 0.0808832C21.2273 0.134395 21.1575 0.210952 21.1121 0.301956L20.2918 1.94258C20.2392 2.04778 20.2219 2.16714 20.2425 2.28294C20.2631 2.39875 20.3204 2.50483 20.4061 2.58545C20.4917 2.66606 20.6011 2.71692 20.7179 2.73046C20.8348 2.744 20.9529 2.71951 21.0547 2.66063V34.4529C21.0547 34.598 21.1123 34.7371 21.2149 34.8396C21.3174 34.9422 21.4565 34.9998 21.6016 34.9998C21.7466 34.9998 21.8857 34.9422 21.9883 34.8396C22.0908 34.7371 22.1484 34.598 22.1484 34.4529V2.65926C22.2501 2.71861 22.3681 2.74352 22.4851 2.73029C22.602 2.71705 22.7115 2.66638 22.7973 2.58582C22.8831 2.50527 22.9405 2.39914 22.9611 2.28327C22.9816 2.1674 22.9642 2.048 22.9113 1.94285L22.091 0.301956Z" fill="black"/>
</g>
<defs>
<clipPath id="clip0_925_3205">
<rect width="35" height="35" fill="white"/>
</clipPath>
</defs>
</svg>
