<svg width="35" height="35" viewBox="0 0 35 35" fill="none" xmlns="http://www.w3.org/2000/svg">
<g opacity="0.6">
<path d="M29.132 14.2025C28.3609 14.1478 27.5461 14.2955 26.7203 14.6455L21.7875 16.7126L20.6719 15.6408C18.2875 13.7103 16.2914 13.6447 14.2406 15.4111L10.6531 18.0251L9.97499 12.8681C9.93124 12.3705 10.2976 11.922 10.7898 11.8673L13.4148 11.5775C14.1422 11.4955 14.782 11.0306 15.0719 10.358L16.2641 7.67827C16.4883 7.16967 16.4773 6.58999 16.2312 6.09233C15.9851 5.59467 15.5367 5.23374 15.0062 5.10249L14.7 5.02592C14.6672 4.83999 14.618 4.65405 14.5359 4.47358C14.2297 3.80639 13.6226 3.2978 12.8625 3.07358L11.2547 2.5978C10.3359 2.32436 9.3078 2.46108 8.50937 2.95327L4.94374 5.15717C4.19452 5.62202 3.70234 6.35483 3.59296 7.16967L1.11015 25.5392C0.96796 26.5783 1.70624 27.5462 2.82187 27.7923L9.72343 29.3126C12.0203 29.8212 14.3719 30.0728 16.7234 30.0728C19.3484 30.0728 21.968 29.7611 24.5109 29.1322C28.9187 28.0439 32.3203 25.0744 33.6164 21.1806C34.1961 19.4415 33.8789 17.5822 32.7414 16.0783C31.9156 14.9845 30.6031 14.3009 29.132 14.197V14.2025ZM32.5773 20.8361C31.4016 24.3689 28.2844 27.0705 24.2484 28.0712C19.5891 29.2197 14.6508 29.2798 9.95859 28.2462L3.05702 26.7259C2.49921 26.6056 2.12734 26.1572 2.19296 25.6869L4.67577 7.31186C4.7414 6.82514 5.04765 6.37671 5.51796 6.08686L9.08359 3.88296C9.61952 3.54936 10.3195 3.46186 10.943 3.6478L12.5508 4.12358C13.0047 4.25483 13.3656 4.55014 13.5351 4.92749C13.6773 5.24467 13.6773 5.58921 13.5351 5.90639C13.4969 5.98842 13.3547 6.05952 13.207 6.02671L9.94765 5.3103C9.65234 5.24467 9.36249 5.43061 9.29687 5.72592C9.23124 6.02124 9.41718 6.31108 9.71249 6.37671L12.9719 7.09311C13.6226 7.2353 14.2734 6.92905 14.5359 6.3603C14.5687 6.28921 14.5851 6.21264 14.6125 6.13608L14.7383 6.16889C14.9625 6.22358 15.1484 6.37124 15.2469 6.57905C15.3508 6.78686 15.3562 7.02749 15.2633 7.24077L14.0711 9.92045C13.9344 10.2376 13.6336 10.4564 13.2945 10.4947L10.6695 10.7845C9.58671 10.9048 8.7828 11.8837 8.88671 12.9939L9.64687 18.7634L9.41718 18.9275C9.17109 19.1025 9.12187 19.447 9.29687 19.6931C9.47734 19.9392 9.8164 19.9939 10.0625 19.8134L14.9187 16.2751C16.3133 15.0775 17.7078 14.6564 19.9445 16.4665L21.5305 17.9978V18.0142H21.5414L22.7391 19.1681C22.9578 19.3759 23.3023 19.3705 23.5101 19.1517C23.718 18.933 23.7125 18.5884 23.4937 18.3806L22.6351 17.5548L27.1359 15.6681C27.8086 15.3892 28.4539 15.2689 29.05 15.3072C30.2039 15.3892 31.2266 15.9197 31.8609 16.7564C32.7742 17.965 33.0367 19.458 32.5719 20.8525L32.5773 20.8361Z" fill="black"/>
</g>
</svg>
