<svg width="35" height="35" viewBox="0 0 35 35" fill="none" xmlns="http://www.w3.org/2000/svg">
<g opacity="0.6">
<path d="M12.7922 33.831C9.69952 33.831 6.79199 32.6273 4.60518 30.4415C2.41925 28.2533 1.21558 25.3459 1.21558 22.2545C1.21558 19.163 2.41925 16.2556 4.60483 14.0678C6.79199 11.8818 9.69952 10.6782 12.7922 10.6782C15.8847 10.6782 18.7923 11.8818 20.9792 14.0674C23.1652 16.2556 24.3689 19.163 24.3689 22.2545C24.3689 25.3459 23.1652 28.2534 20.9796 30.4411C18.7923 32.6273 15.8848 33.831 12.7922 33.831ZM12.7922 11.9087C10.0281 11.9087 7.42944 12.9844 5.47498 14.9379C1.44479 18.9722 1.44479 25.537 5.47532 29.5716C7.42944 31.5247 10.0281 32.6006 12.7922 32.6006C15.5562 32.6006 18.1548 31.5248 20.1093 29.5713C24.1396 25.537 24.1396 18.9722 20.109 14.9375C18.1549 12.9844 15.5562 11.9087 12.7922 11.9087ZM31.7019 13.0841C31.673 13.0841 31.6438 13.0821 31.6144 13.0779C31.278 13.03 31.0441 12.7185 31.092 12.3821L32.4901 2.55654L22.667 3.95257C22.3305 4.0007 22.019 3.76643 21.9713 3.43003C21.9235 3.09364 22.1575 2.78212 22.4939 2.73434L33.1281 1.22305C33.32 1.19543 33.5129 1.26031 33.6497 1.39716C33.7866 1.53402 33.851 1.72727 33.8238 1.91881L32.3101 12.5555C32.2665 12.8625 32.0032 13.0841 31.7019 13.0841Z" fill="black"/>
<path d="M20.5442 15.1178C20.3867 15.1178 20.2293 15.0577 20.1092 14.9376C19.8689 14.6973 19.8689 14.3077 20.1092 14.0674L32.7796 1.39696C33.0199 1.15674 33.4094 1.15674 33.6497 1.39696C33.89 1.63724 33.89 2.02682 33.6497 2.2671L20.9792 14.9377C20.8591 15.0577 20.7016 15.1178 20.5442 15.1178Z" fill="black"/>
</g>
</svg>
