<svg width="35" height="35" viewBox="0 0 35 35" fill="none" xmlns="http://www.w3.org/2000/svg">
<g opacity="0.6">
<path d="M31.2266 5.19536C31.0625 4.97661 30.7891 4.81254 30.5156 4.81254C28.4375 4.59379 26.8516 4.81254 25.8125 5.63286C25.4844 5.90629 25.3203 6.28911 25.4297 6.72661L25.7578 8.03911C25.8672 8.47661 26.25 8.80473 26.7422 8.80473L29.586 8.96879C30.0235 9.73442 30.1875 10.336 30.0781 11.1016C30.0781 11.1016 30.0781 11.1563 30.0235 11.1563C29.3672 11.7579 28.9844 12.5782 28.9844 13.5625C27.3985 13.0157 25.9766 13.0157 24.6641 13.6172C23.625 12.4141 22.3125 11.7032 20.8906 11.7032C20.0156 11.7032 19.1953 11.9766 18.4297 12.4688C18.4844 12.25 18.5938 12.086 18.6485 11.8672C19.3047 10.3907 20.3438 9.40629 21.7656 9.02348C22.0391 8.91411 22.2031 8.64067 22.1485 8.36723C22.0391 8.09379 21.7656 7.92973 21.4922 7.98442C19.7969 8.47661 18.4844 9.67973 17.7188 11.4297C17.5 11.8672 17.336 12.3594 17.2266 12.9063C16.2969 12.1407 15.2578 11.7032 14.1641 11.7032C12.7422 11.7032 11.4297 12.4141 10.3906 13.6172C9.07814 13.0157 7.65627 13.0157 6.07033 13.5625C6.01564 12.0313 5.25002 11.4297 4.97658 11.1016C4.8672 10.336 5.08595 9.73442 5.46877 8.96879L8.31252 8.80473C8.8047 8.80473 9.18752 8.47661 9.29689 8.03911L9.62502 6.72661C9.73439 6.34379 9.57033 5.90629 9.2422 5.63286C8.20314 4.86723 6.67189 4.59379 4.53908 4.86723C4.26564 4.92192 3.9922 5.03129 3.82814 5.25004C0.492203 9.29692 -0.656235 13.6719 0.492203 18.2657C0.54689 18.5938 1.09377 19.086 2.07814 19.0313C3.88283 20.2344 5.85158 20.8907 7.87502 20.8907C7.82033 25.3204 10.1719 30.3516 14.1094 30.3516C15.3125 30.3516 16.5156 29.8594 17.5 28.875C18.4844 29.8594 19.6875 30.3516 20.8906 30.3516C24.8281 30.3516 27.1797 25.4297 27.125 20.8907C29.2031 20.836 31.1172 20.2344 32.9219 19.0313C33.5781 19.086 34.3438 18.8672 34.5078 18.2657C35.711 13.6172 34.6172 9.24223 31.2266 5.19536ZM2.51564 17.9375C2.40627 17.8829 2.29689 17.8282 2.13283 17.8282C1.69533 17.8829 1.53127 17.8282 1.47658 17.7735C0.492203 13.5625 1.53127 9.57036 4.64845 5.90629C6.39845 5.68754 7.71095 5.90629 8.53127 6.45317L8.20314 7.65629L5.14064 7.82036C5.03127 7.82036 4.97658 7.76567 4.92189 7.71098C4.75783 7.43754 4.4297 7.38286 4.15627 7.54692C3.88283 7.71098 3.82814 8.03911 3.9922 8.31254C4.10158 8.42192 4.21095 8.53129 4.32033 8.64067C3.88283 9.46098 3.71877 10.2266 3.82814 11.1563C3.93752 12.0313 5.08595 12.0313 4.8672 14C4.75783 14.0547 4.64845 14.1094 4.59377 14.1641C4.32033 14.3282 4.26564 14.6563 4.37502 14.9297C4.48439 15.0938 4.64845 15.2032 4.8672 15.2032C5.19533 15.2032 7.38283 13.6172 9.6797 14.4922C8.75002 15.9141 8.14845 17.7188 7.9297 19.7422C6.01564 19.7422 4.21095 19.1407 2.51564 17.9375ZM20.8906 29.2032C19.7969 29.2032 18.7578 28.6563 17.8828 27.6719C17.7735 27.5625 17.6641 27.5079 17.4453 27.5079C17.2813 27.5079 17.1172 27.5625 17.0078 27.6719C16.1328 28.6563 15.0938 29.2032 14 29.2032C11.1563 29.2032 8.85939 25.5391 8.85939 21C8.85939 16.461 11.1563 12.7969 14 12.7969C15.0391 12.7969 16.0235 13.2891 16.8985 14.2188C16.8438 15.0391 16.8985 14.7657 16.8985 15.2579C16.5703 15.1485 16.2422 14.9844 16.0235 14.7657C15.8047 14.5469 15.4766 14.5469 15.2578 14.7657C15.0391 14.9844 15.0391 15.3125 15.2578 15.5313C15.8594 16.1329 16.6797 16.461 17.4453 16.461C18.2656 16.461 19.0313 16.1329 19.6328 15.5313C19.8516 15.3125 19.8516 14.9844 19.6328 14.7657C19.4141 14.5469 19.086 14.5469 18.8672 14.7657C18.5938 15.0391 18.3203 15.2032 17.9922 15.2579C17.9922 14.8204 17.9922 14.7657 18.0469 14.1641C18.8672 13.2891 19.8516 12.7969 20.8906 12.7969C23.7344 12.7969 26.0313 16.461 26.0313 21C26.0313 25.4844 23.7344 29.2032 20.8906 29.2032ZM33.5235 17.7735C33.4688 17.8282 33.25 17.8829 32.8672 17.8282C32.7578 17.8282 32.5938 17.8282 32.4844 17.9375C30.7891 19.1407 28.9844 19.7422 27.0703 19.7422C26.9063 17.7188 26.25 15.8594 25.3203 14.4922C27.6172 13.6172 29.75 15.2032 30.1328 15.2032C30.2969 15.2032 30.5156 15.0938 30.625 14.9297C30.7891 14.6563 30.6797 14.3282 30.4063 14.1641C30.2969 14.1094 30.1875 14.0547 30.0781 14C30.0235 13.0704 30.2422 12.4141 30.7891 11.8672C31.0078 11.6485 31.1172 11.4297 31.1719 11.1563C31.2813 10.2266 31.1172 9.46098 30.6797 8.64067C30.7891 8.53129 30.9531 8.42192 31.0078 8.31254C31.1719 8.03911 31.1172 7.71098 30.8438 7.54692C30.5703 7.38286 30.2422 7.43754 30.0781 7.71098C30.0781 7.76567 29.9688 7.82036 29.8594 7.82036L26.7969 7.65629L26.4688 6.39848C27.2891 5.85161 28.6016 5.63286 30.3516 5.85161C33.4688 9.62504 34.5078 13.6172 33.5235 17.7735ZM12.8516 15.9688C12.5781 15.8047 12.25 15.8594 12.086 16.1329C11.2656 17.3907 10.8281 19.1407 10.8281 21C10.8281 22.9141 11.2656 24.2813 11.6485 25.1016C11.7578 25.3204 11.9219 25.4297 12.1406 25.4297C12.1953 25.4297 12.3047 25.4297 12.3594 25.375C12.6328 25.2657 12.7422 24.9375 12.6328 24.6641C12.3047 23.9532 11.9219 22.75 11.9219 21.0547C11.9219 19.4141 12.3047 17.8282 13.0156 16.7891C13.1797 16.461 13.125 16.1329 12.8516 15.9688Z" fill="black"/>
</g>
</svg>
