<svg width="35" height="35" viewBox="0 0 35 35" fill="none" xmlns="http://www.w3.org/2000/svg">
<g opacity="0.6" clip-path="url(#clip0_925_936)">
<path d="M19.335 34.631H6.84819C4.05967 34.631 1.92727 32.3961 1.74274 29.6691L0.0204171 5.63862C-0.184621 2.72708 2.29634 0.369141 5.12587 0.369141H29.874C32.7035 0.369141 35.1844 2.72708 34.9794 5.63862L33.2571 29.6691C33.0726 32.3961 30.9402 34.631 28.1516 34.631H19.335ZM26.2038 26.9216C26.2038 26.9216 26.1833 26.9421 26.1833 26.9626C25.5477 29.136 24.0714 29.136 23.7433 29.095C23.5178 29.136 23.2922 29.136 23.0872 29.1155C20.2987 28.9104 20.9343 25.6708 21.3034 23.9485C21.5494 22.6773 21.7134 21.9186 20.5447 19.4582C19.089 16.3416 21.4264 14.0862 23.9279 14.4553C25.1991 14.6603 26.4293 15.5625 26.9214 17.3463C27.5775 19.7452 26.5113 25.1787 26.4293 25.5478C26.3883 26.0809 26.3063 26.532 26.2038 26.9216ZM25.3426 26.9216C24.4199 25.9169 22.8617 25.7939 21.775 26.6345C21.857 28.6849 23.5178 28.2338 23.8253 28.2953C23.9894 28.2953 24.8505 28.3363 25.3426 26.9216ZM21.8365 25.6298C23.0462 25.0352 24.502 25.1787 25.5477 26.0194C25.5887 25.8554 25.6092 25.6708 25.6297 25.4658C25.6502 25.0967 26.7574 19.8478 26.1218 17.5718C25.0351 13.5531 19.417 15.1524 21.2829 19.1096C22.9642 22.6568 22.1235 23.0669 21.8365 25.6298ZM8.81655 26.9626C8.67302 26.5525 8.63202 26.0604 8.55 25.5478C8.48849 25.1787 7.42229 19.7452 8.07841 17.3463C9.00108 13.9632 12.5893 13.7171 14.1885 15.5625C14.9472 16.4646 15.2137 17.8179 14.4551 19.4582C12.8148 22.9438 13.7785 23.0258 14.0245 26.0604C14.0655 26.7165 14.004 27.4342 13.676 28.0493C13.2864 28.7464 12.5687 29.2385 11.236 29.095C10.9079 29.136 9.43166 29.136 8.81655 26.9626ZM9.43166 26.0194C10.4979 25.1787 11.9741 25.0352 13.1634 25.6503C12.8763 23.0669 12.0151 22.6978 13.6965 19.1096C15.5623 15.1524 9.96476 13.5531 8.85756 17.5718C8.24244 19.8478 9.34965 25.0967 9.37015 25.4658C9.39066 25.6708 9.41116 25.8554 9.43166 26.0194ZM13.2044 26.6345C12.1382 25.7939 10.5799 25.9169 9.65721 26.9421C10.1903 28.4799 11.195 28.2748 11.2975 28.2748C12.7123 28.4389 13.1634 27.6392 13.2044 26.6345ZM17.0796 31.986V11.5642H3.09599L4.38773 29.4845C4.46974 30.8173 5.45393 31.986 6.84819 31.986H17.0796ZM17.8997 11.5642V31.986H28.1516C29.5254 31.986 30.5096 30.8173 30.6121 29.4845L31.9038 11.5642H17.8997ZM17.2641 8.96024L18.5354 6.76633C18.8019 6.29474 19.499 6.70482 19.2325 7.1764L18.2073 8.96024H22.3491V6.88935C22.3491 5.74114 21.4059 4.79796 20.2782 4.79796H14.7216C13.5734 4.79796 12.6508 5.74114 12.6508 6.88935V8.96024H17.2641ZM3.03448 10.7441H31.9653L32.3344 5.45408C32.4369 4.10083 31.2067 3.01413 29.874 3.01413H5.12587C3.79312 3.01413 2.56289 4.10083 2.66541 5.45408L3.03448 10.7441ZM22.7591 9.78039H12.2407C11.9946 9.78039 11.8306 9.59585 11.8306 9.37031V6.88935C11.8306 5.29005 13.1224 3.97781 14.7216 3.97781H20.2782C21.857 3.97781 23.1692 5.29005 23.1692 6.88935V9.37031C23.1692 9.59585 22.9847 9.78039 22.7591 9.78039ZM5.12587 2.19398H29.874C31.6578 2.19398 33.2776 3.67025 33.1546 5.5156L31.4322 29.5461C31.3092 31.3094 29.9765 32.8062 28.1516 32.8062H6.84819C5.02335 32.8062 3.6906 31.3094 3.56758 29.5461L1.84526 5.5156C1.70173 3.67025 3.32153 2.19398 5.12587 2.19398ZM6.84819 33.8108C13.9425 33.8108 21.0573 33.8108 28.1516 33.8108C30.5096 33.8108 32.2729 31.904 32.4369 29.6281L34.1593 5.57711C34.3438 3.15766 32.2524 1.18929 29.874 1.18929H5.12587C2.74742 1.18929 0.656035 3.15766 0.820066 5.57711L2.54239 29.6281C2.70642 31.904 4.49025 33.8108 6.84819 33.8108Z" fill="black"/>
</g>
<defs>
<clipPath id="clip0_925_936">
<rect width="35" height="35" fill="white"/>
</clipPath>
</defs>
</svg>
